<?xml version="1.0" standalone="no"?>
<!DOCTYPE svg PUBLIC "-//W3C//DTD SVG 1.1//EN" "http://www.w3.org/Graphics/SVG/1.1/DTD/svg11.dtd" >
<svg xmlns="http://www.w3.org/2000/svg">
<metadata>Generated by IcoMoon</metadata>
<defs>
<font id="font" horiz-adv-x="1024">
<font-face units-per-em="1024" ascent="896" descent="-128" />
<missing-glyph horiz-adv-x="1024" />
<glyph unicode="&#x20;" horiz-adv-x="0" d="" />
<glyph unicode="&#x78;" glyph-name="x" horiz-adv-x="1001" d="M281 543q-27-1-53-1h-83q-18 0-36.5-6t-32.5-18.5-23-32-9-45.5v-76h912v41q0 16-0.5 30t-0.5 18q0 13-5 29t-17 29.5-31.5 22.5-49.5 9h-133v-97h-438v97zM955 310v-52q0-23 0.5-52t0.5-58-10.5-47.5-26-30-33-16-31.5-4.5q-14-1-29.5-0.5t-29.5 0.5h-32l-45 128h-439l-44-128h-63q-20 0-45 1-25 0-41 9.5t-25.5 23-13.5 29.5-4 30v167h911zM163 247q-12 0-21-8.5t-9-21.5 9-21.5 21-8.5q13 0 22 8.5t9 21.5-9 21.5-22 8.5zM316 123q-8-26-14-48-5-19-10.5-37t-7.5-25-3-15 1-14.5 9.5-10.5 21.5-4h365q23 0 34 12t2 38q-5 13-9.5 30.5t-9.5 34.5q-5 19-11 39h-368zM336 498v228q0 11 2.5 23t10 21.5 20.5 15.5 34 6h188q31 0 51.5-14.5t20.5-52.5v-227h-327z" />
<glyph unicode="&#xe600;" glyph-name="user2" d="M639.625 333.451q59.058 35.034 94.092 96.094t35.034 133.13q0 110.108-76.575 187.683t-185.181 77.576-185.181-77.576-76.575-187.683q0-73.071 36.536-135.132t96.594-96.094q-120.117-40.039-199.695-139.136t-91.589-228.223q-1.001-14.014 8.008-25.024t23.523-12.512 25.525 7.507 12.012 24.023q13.013 139.136 115.112 232.227t241.736 93.091 241.736-93.091 114.111-232.227q2.002-14.014 12.012-23.022t23.022-9.009h3.003q14.014 2.002 23.523 13.013t7.507 25.024q-11.011 132.129-93.091 232.227t-205.2 137.134zM314.307 562.674q0 81.079 56.555 138.635t136.133 57.556 136.133-57.556 56.555-138.635-56.555-138.635-136.133-57.556-136.133 57.556-56.555 138.635z" />
<glyph unicode="&#xe601;" glyph-name="set22" d="M1025.001 281.4v192.188l-147.144 25.024q-9.009 27.026-21.021 52.051l86.084 121.118-136.133 136.133-121.118-86.084q-25.024 13.013-53.052 22.022l-24.023 146.143h-192.188l-24.023-146.143q-28.027-9.009-53.052-22.022l-121.118 86.084-136.133-136.133 86.084-121.118q-12.012-25.024-21.021-52.051l-147.144-25.024v-192.188l147.144-25.024q9.009-26.025 22.022-52.051l-87.085-121.118 136.133-136.133 122.119 87.085q25.024-13.013 51.050-22.022l25.024-147.144h192.188l25.024 147.144q26.025 9.009 51.050 22.022l122.119-87.085 136.133 136.133-87.085 121.118q13.013 26.025 22.022 52.051zM512.5 249.369q-53.052 0-90.588 37.537t-37.537 90.588 37.537 90.588 90.588 37.537 90.588-37.537 37.537-90.588-37.537-90.588-90.588-37.537z" />
<glyph unicode="&#xe602;" glyph-name="left4" d="M512.5 917.021q-93.091 0-177.173-36.035t-145.142-97.095-97.095-145.142-36.035-177.173 36.035-177.173 97.095-145.142 145.142-97.095 177.173-36.035 177.173 36.035 145.142 97.095 97.095 145.142 36.035 177.173-36.035 177.173-97.095 145.142-145.142 97.095-177.173 36.035zM512.5 120.242q-93.091 0-171.668 45.544t-124.121 124.121-45.544 171.668 45.544 171.668 124.121 124.121 171.668 45.544 171.668-45.544 124.121-124.121 45.544-171.668-45.544-171.668-124.121-124.121-171.668-45.544zM683.668 518.631h-206.201l74.072 73.071q17.017 17.017 17.017 40.54t-16.516 40.54-40.039 17.017-39.539-17.017l-171.167-169.165q-17.017-17.017-17.017-40.039 0-1.001 1.001-2.002l-1.001-2.002q0-24.023 17.017-40.039l171.167-169.165q16.016-17.017 39.539-17.017t40.039 17.017 16.516 40.54-17.017 39.539l-74.072 74.072h206.201q24.023 0 40.54 16.516t16.516 39.539v1.001q0 24.023-16.516 40.54t-40.54 16.516v0z" />
<glyph unicode="&#xe603;" glyph-name="add4" d="M875.855 478.092q0-8.508-6.006-14.514t-14.014-6.006h-307.3v-307.3q0-9.009-6.006-15.015t-14.514-6.006-14.514 6.006-6.006 15.015v307.3h-308.301q-8.008 0-14.014 6.006t-6.006 14.514 6.006 14.514 14.014 6.006h308.301v307.3q0 9.009 6.006 15.015t14.514 6.006 14.514-6.006 6.006-15.015v-307.3h307.3q8.008 0 14.014-6.006t6.006-14.514z" />
<glyph unicode="&#xe604;" glyph-name="Password" d="M785.767-61.935h-546.534q-45.044 0-77.576 32.031t-32.532 78.076v271.265q0 46.045 32.532 78.076t77.576 32.031v92.090q0 113.11 79.077 190.686t194.19 77.576 194.19-77.576 79.077-190.686v-92.090q45.044 0 77.576-32.031t32.532-78.076v-271.265q0-46.045-32.532-78.076t-77.576-32.031zM737.72 521.634q0 91.089-66.565 156.152t-158.655 65.064-158.655-65.064-66.565-156.152v-92.090h450.44v92.090zM848.829 319.437q0 23.022-20.52 43.042t-42.542 20.020h-546.534q-22.022 0-42.542-20.020t-20.52-43.042v-271.265q0-23.022 20.52-44.543t42.542-21.521h546.534q22.022 0 42.542 21.521t20.52 44.543v271.265zM526.514 46.17h-28.027q-5.005 0-9.509 4.004t-4.504 9.009v228.223q0 6.006 4.504 10.010t9.509 4.004h28.027q5.005 0 9.509-4.004t4.504-10.010v-228.223q0-5.005-4.504-9.009t-9.509-4.004z" />
<glyph unicode="&#xe605;" glyph-name="add7" horiz-adv-x="1026" d="M964.942 113.236q59.058 103.101 60.059 252.246 1.001 106.104-38.037 202.197t-105.603 166.663-161.157 112.61-199.695 43.042h-3.003q-105.103 0-200.196-40.54t-164.661-109.607-110.608-164.16-42.041-200.196 39.038-199.695 109.107-162.158 164.16-107.605 200.196-41.040h19.019q152.149 0 255.249 67.065 45.044 29.028 99.597 83.081t78.577 98.096zM789.271 99.222q-54.553-54.053-124.622-83.081t-147.144-29.028h-2.002q-105.103 0-193.689 52.551t-139.636 141.638-50.049 193.189q0 77.075 29.529 147.144t84.082 124.121 124.622 83.081 147.144 29.028h3.003q77.075 0 147.144-29.529t124.121-84.583 83.081-125.623 28.027-148.645q0-76.074-29.529-146.143t-84.082-124.121zM604.59 643.754h-159.155v-180.176h-180.176v-158.154h180.176v-180.176h159.155v180.176h180.176v158.154h-180.176v180.176z" />
<glyph unicode="&#xe606;" glyph-name="adds6" d="M512.5 761.869q-158.154 0-271.265-113.11t-113.11-271.265 113.11-271.265 271.265-113.11 271.265 113.11 113.11 271.265-113.11 271.265-271.265 113.11zM730.714 351.468h-192.188v-192.188q0-9.009-8.008-17.017t-18.018-8.008-18.018 8.008-8.008 17.017v192.188h-192.188q-9.009 0-14.014 8.008t-5.005 18.018 8.008 18.018 18.018 8.008h192.188v192.188q0 9.009 8.008 17.017t17.517 8.008 17.517-8.008 8.008-17.017v-192.188h192.188q10.010 0 18.018-8.008t8.008-18.018q-13.013-26.025-32.031-26.025z" />
<glyph unicode="&#xe607;" glyph-name="add6" d="M496.985 858.964q-100.598 0-192.688-39.539t-158.655-106.104-106.104-158.655-39.539-192.688 39.539-192.688 106.104-158.655 158.655-106.104 192.688-39.539 192.688 39.539 158.655 106.104 106.104 158.655 39.539 192.688-39.539 192.688-106.104 158.655-158.655 106.104-192.688 39.539zM496.985-72.946q-88.587 0-169.165 34.534t-138.635 92.59-92.59 138.635-34.534 169.165 34.534 169.165 92.59 138.635 138.635 92.59 169.165 34.534 169.165-34.534 138.635-92.59 92.59-138.635 34.534-169.165-34.534-169.165-92.59-138.635-138.635-92.59-169.165-34.534zM683.668 393.509h-155.152v155.152q0 13.013-9.509 22.022t-22.022 9.009-22.022-9.009-9.509-22.022v-155.152h-155.152q-13.013 0-22.022-9.509t-9.009-22.022 9.009-22.022 22.022-9.509h155.152v-155.152q0-13.013 9.509-22.022t22.022-9.009 22.022 9.009 9.509 22.022v155.152h155.152q13.013 0 22.022 9.509t9.009 22.022-9.009 22.022-22.022 9.509z" />
<glyph unicode="&#xe608;" glyph-name="add-need" d="M512.5 900.004q89.087 0 170.166-34.534t140.137-93.591 93.591-140.137 34.534-170.166-34.534-170.166-93.591-140.137-140.137-93.591-170.166-34.534-170.166 34.534-140.137 93.591-93.591 140.137-34.534 170.166 34.534 170.166 93.591 140.137 140.137 93.591 170.166 34.534zM512.5 974.076q-104.102 0-199.195-40.54t-163.66-109.107-109.107-163.66-40.54-199.195 40.54-199.195 109.107-163.66 163.66-109.107 199.195-40.54q139.136 0 257.251 68.567t186.682 186.682 68.567 257.251q0 104.102-40.54 199.195t-109.107 163.66-163.66 109.107-199.195 40.54v0zM736.719 440.555q0-8.008-5.505-13.513t-13.513-5.505h-410.401q-8.008 0-13.513 5.505t-5.505 13.513v42.041q0 8.008 5.505 13.513t13.513 5.505h410.401q8.008 0 13.513-5.505t5.505-13.513v-42.041zM533.521 685.795q8.008 0 13.513-5.505t5.505-13.513v-410.401q0-8.008-5.505-13.513t-13.513-5.505h-42.041q-8.008 0-13.513 5.505t-5.505 13.513v410.401q0 8.008 5.505 13.513t13.513 5.505h42.041z" />
<glyph unicode="&#xe609;" glyph-name="set4" d="M930.909 531.644h-42.041q-14.014 0-27.527 9.509t-17.517 23.523l-24.023 58.057q-7.007 13.013-4.504 29.028t12.512 27.026l30.029 29.028q10.010 10.010 10.010 24.524t-10.010 24.524l-50.049 50.049q-10.010 10.010-24.524 10.010t-24.524-10.010l-30.029-30.029q-10.010-10.010-26.025-12.512t-29.028 4.504l-58.057 24.023q-14.014 4.004-23.523 17.517t-9.509 27.527v42.041q0 14.014-10.51 24.524t-24.524 10.51h-70.068q-14.014 0-24.524-10.51t-10.51-24.524v-42.041q0-14.014-9.509-27.527t-23.523-17.517l-58.057-24.023q-13.013-7.007-29.028-4.504t-26.025 12.512l-30.029 30.029q-10.010 10.010-24.524 10.010t-24.524-10.010l-50.049-50.049q-10.010-10.010-10.010-24.524t10.010-24.524l30.029-29.028q10.010-11.011 12.512-27.026t-4.504-29.028l-24.023-58.057q-4.004-14.014-17.517-23.523t-27.527-9.509h-42.041q-14.014 0-24.524-10.51t-10.51-24.524v-70.068q0-14.014 10.51-24.524t24.524-10.51h42.041q14.014 0 27.527-9.509t17.517-23.523l24.023-58.057q7.007-13.013 4.504-29.028t-12.512-27.026l-30.029-29.028q-10.010-10.010-10.010-24.524t10.010-24.524l50.049-50.049q10.010-10.010 24.524-10.010t24.524 10.010l30.029 30.029q10.010 10.010 26.025 12.512t29.028-4.504l58.057-24.023q14.014-4.004 23.523-17.517t9.509-27.527v-42.041q0-14.014 10.51-24.524t24.524-10.51h70.068q14.014 0 24.524 10.51t10.51 24.524v42.041q0 14.014 9.509 27.527t23.523 17.517l58.057 24.023q13.013 7.007 29.028 4.504t27.026-12.512l29.028-30.029q10.010-10.010 24.524-10.010t24.524 10.010l50.049 50.049q10.010 10.010 10.010 24.524t-10.010 24.524l-30.029 29.028q-10.010 11.011-12.512 27.026t4.504 29.028l24.023 58.057q4.004 14.014 17.517 23.523t27.527 9.509h42.041q14.014 0 24.524 10.51t10.51 24.524v70.068q0 14.014-10.51 24.524t-24.524 10.51zM686.671 461.576q0-72.070-51.050-123.12t-123.12-51.050-123.12 51.050-51.050 123.12 51.050 123.12 123.12 51.050 123.12-51.050 51.050-123.12v0z" />
<glyph unicode="&#xe60a;" glyph-name="icon" horiz-adv-x="981" d="M919.783 527.855v-490.125q0-25.275-20.33-43.41t-46.7-18.138h-730.782q-25.275 0-42.86 17.586t-17.586 42.86v730.782q0 26.369 18.138 46.7t43.41 20.33h490.125v60.439h-490.125q-50.549 0-86.815-37.915t-36.259-89.562v-730.782q0-50.549 35.714-86.263t86.263-35.714h730.782q51.65 0 90.111 36.259t38.464 86.815v490.125h-61.541zM279.112 372.906l-130.769-267.040q-8.794-23.080 5.493-38.464t37.363-4.397l265.943 131.873q19.781 3.303 31.866 15.385l473.635 473.635q17.586 17.586 17.586 42.86t-17.586 42.86l-107.697 107.697q-17.586 18.685-42.86 18.685t-42.86-18.685l-473.635-473.635q-12.089-10.987-16.482-30.767zM790.113 813.571q8.794 8.794 21.427 8.794t21.427-8.794l64.836-64.836q8.794-8.794 8.794-21.427t-8.794-21.427l-64.836-64.836-105.494 108.794zM682.414 704.777l107.697-106.598-343.961-345.064-21.979 21.979-64.836 63.739q-5.493 6.592-10.44 11.537l-10.44 10.44zM392.305 221.253l-164.833-100.001q-10.987-5.493-18.685 2.751t-2.199 18.138l98.904 164.833z" />
<glyph unicode="&#xe60b;" glyph-name="add2" d="M512.5-135.007q-139.136 0-257.251 68.567t-186.682 186.682-68.567 257.251 68.567 257.251 186.682 186.682 257.251 68.567 257.251-68.567 186.682-186.682 68.567-257.251-68.567-257.251-186.682-186.682-257.251-68.567zM512.5 761.869q-159.155 0-271.765-112.61t-112.61-271.765 112.61-271.765 271.765-112.61 271.765 112.61 112.61 271.765-112.61 271.765-271.765 112.61zM704.688 313.431h-128.125v-128.125q0-27.026-18.518-45.544t-45.544-18.518-45.544 18.518-18.518 45.544v128.125h-128.125q-27.026 0-45.544 18.518t-18.518 45.544q0 26.025 19.019 45.044t45.044 19.019h128.125v128.125q0 26.025 19.019 45.044t45.044 19.019q27.026 0 45.544-18.518t18.518-45.544v-128.125h128.125q27.026 0 45.544-18.518t18.518-45.544-18.518-45.544-45.544-18.518z" />
<glyph unicode="&#xe60c;" glyph-name="add13" d="M512.5 26.151q-88.086 0-168.665 34.534t-139.136 93.091-93.091 139.136-34.534 168.665 34.534 168.665 93.091 139.136 139.136 93.091 168.665 34.534 168.665-34.534 139.136-93.091 93.091-139.136 34.534-168.665-34.534-168.665-93.091-139.136-139.136-93.091-168.665-34.534zM512.5 881.986q-114.111 0-210.706-56.555t-153.15-153.15-56.555-210.706 56.555-210.706 153.15-153.15 210.706-56.555 210.706 56.555 153.15 153.15 56.555 210.706-56.555 210.706-153.15 153.15-210.706 56.555zM677.662 496.61h-132.129v134.131h-69.067v-134.131h-129.126v-70.068h129.126v-126.123h69.067v126.123h132.129v70.068z" />
<glyph unicode="&#xe60d;" glyph-name="iconfontxiugai" d="M355.215 250.309l221.703 62.469-159.234 158.010zM946.832 681.467l-158.010 156.785-347.866-345.416 158.010-158.010zM901.512 98.424q0-41.646-29.397-70.431t-69.818-28.785h-595.292q-40.421 0-69.818 28.785t-29.397 70.431v594.067q0 41.646 29.397 70.431t69.818 28.785h396.861l99.215 99.215h-529.148q-67.368 0-115.751-48.383t-48.383-116.976v-660.21q0-68.593 48.383-116.976t115.751-48.383h661.435q68.593 0 116.976 48.383t48.383 116.976v527.923l-99.215-99.215v-395.636zM1021.55 813.754l-99.215 97.99q-12.249 12.249-30.622 11.636t-30.622-12.861l-47.77-47.77 158.010-156.785 47.77 46.545q13.474 13.474 14.086 31.234t-11.636 30.010z" />
<glyph unicode="&#xe60e;" glyph-name="user1" d="M518.506 307.425q-120.117 0-204.199 84.082t-84.082 204.199 84.082 204.199 204.199 84.082 204.199-84.082 84.082-204.199q-4.004-120.117-88.086-204.199t-200.196-84.082zM518.506 806.913q-91.089 0-154.151-63.562t-63.062-154.651q0-90.088 63.062-150.647t154.151-60.559q92.090 0 155.152 63.062t63.062 155.152q0 89.087-64.563 150.147t-153.65 61.060zM128.125-121.994h-70.068q0 10.010 1.001 29.028t10.51 67.065 25.024 94.092 49.548 100.098 79.578 93.591 118.616 67.065 164.16 29.529h14.014t37.036-4.004 55.554-11.011 65.564-23.523 71.57-39.038 69.568-59.558 63.562-83.582 48.547-113.611 29.028-146.143h-64.063q-9.009 84.082-34.534 152.649t-56.055 110.108-71.57 72.070-73.572 44.543-69.568 21.521-51.050 8.508-27.026 0h-1.001q-77.075-1.001-140.137-24.023t-101.599-56.555-67.566-79.578-43.042-84.583-22.022-79.578-9.009-58.057-1.001-27.026z" />
<glyph unicode="&#xe60f;" glyph-name="modify" d="M802.247-127.99h-575.117q-46.292 0-77.151 30.158t-30.858 77.852v744.845q0 47.69 30.858 77.852t77.151 30.158h368.918v-36.473h-368.918q-32.261 0-51.902-21.044t-19.639-50.498v-744.845q0-32.261 21.74-51.902t49.796-19.639h565.298q32.261 0 52.603 21.74t20.343 49.796v502.174h35.069v-502.174q7.013-40.678-22.441-74.344t-75.746-33.666zM451.564 106.267v0q-8.417 0-18.236 8.417l-89.774 63.125q-5.61 7.013-5.61 18.236t5.61 16.832l440.452 566.702q21.044 21.044 44.888 8.417l89.774-63.125q-4.21 0-4.21-2.106t2.106-7.013 2.106-9.118q0-16.832-8.417-16.832l-432.037-575.117q-8.417-8.417-26.654-8.417zM371.606 204.455l79.958-63.125 430.636 556.885-79.958 63.125zM910.254 689.797q-9.82 0-18.236 8.417l-89.774 63.125-18.236 18.236v16.832l71.541 99.593h9.82q8.417 0 16.832-9.82l89.774-61.722 18.236-18.236v-18.236l-71.541-98.188h-8.417zM828.893 787.991l81.355-63.125 53.305 63.125-81.355 63.125zM281.835-1.746l61.722 197.785 28.056-9.82-28.056-108.008 89.774 63.125 18.236-26.654z" />
<glyph unicode="&#xe610;" glyph-name="password1" d="M882.862 377.494h-80.078v224.219q0 119.116-84.583 203.699t-203.699 84.583-203.699-84.583-84.583-203.699v-224.219h-80.078q-20.020 0-34.033-14.014t-14.014-34.033v-416.407q0-20.020 14.014-34.033t34.033-14.014h736.719q20.020 0 34.033 14.014t14.014 34.033v416.407q0 20.020-14.014 34.033t-34.033 14.014zM562.549 102.225v-93.091q0-20.020-14.014-34.033t-34.033-14.014-34.033 14.014-14.014 34.033v93.091q-22.022 13.013-35.034 35.034t-13.013 48.047q0 40.039 28.027 68.066t68.066 28.027 68.066-28.027 28.027-68.066q0-26.025-13.013-48.047t-35.034-35.034zM706.69 377.494h-384.375v224.219q0 80.078 56.055 136.133t135.632 56.055 136.133-56.055 56.555-136.133v-224.219z" />
<glyph unicode="&#xe611;" glyph-name="set3" horiz-adv-x="1037" d="M973.951 569.681h-91.089l-34.033 85.083 62.061 63.062q17.017 17.017 17.017 37.036t-17.017 37.036l-74.072 68.066q-31.030 32.031-74.072 0l-62.061-62.061q-37.036 22.022-86.084 34.033v91.089q0 21.021-17.517 36.035t-38.538 15.015h-97.095q-22.022 0-39.539-15.015t-17.517-36.035v-91.089l-85.083-34.033-63.062 62.061q-13.013 17.017-34.033 17.017t-34.033-17.017l-74.072-74.072q-17.017-13.013-17.017-34.033t17.017-34.033l62.061-63.062q-22.022-36.035-34.033-85.083h-91.089q-21.021 0-36.035-17.517t-15.015-39.539v-102.1q0-22.022 15.015-39.539t36.035-17.517h91.089q3.003-8.008 8.508-22.022t14.014-34.033 11.511-29.028l-62.061-63.062q-17.017-17.017-17.017-37.036t17.017-37.036l74.072-68.066q31.030-32.031 74.072 0l62.061 62.061q37.036-22.022 86.084-34.033v-91.089q0-21.021 17.517-36.035t38.538-15.015h103.101q22.022 0 39.539 15.015t17.517 36.035v91.089l85.083 34.033 63.062-62.061q17.017-17.017 37.036-17.017t37.036 17.017l74.072 74.072q31.030 31.030 0 74.072l-63.062 62.061q22.022 37.036 34.033 86.084h91.089q21.021 0 36.035 17.517t15.015 38.538v97.095q-9.009 24.023-25.525 40.54t-36.536 16.516v0zM512.5 233.353q-98.096 0-165.662 67.065t-67.566 161.157q0 95.093 68.066 164.16t165.161 69.067q94.092 0 161.157-67.566t67.065-165.662q0-94.092-67.065-161.157t-161.157-67.065v0z" />
<glyph unicode="&#xe612;" glyph-name="add3" d="M959.937 442.557h-447.437v447.437h-64.063v-447.437h-448.438v-65.064h448.438v-447.437h64.063v447.437h447.437v65.064z" />
<glyph unicode="&#xe614;" glyph-name="weibiaoti22" d="M954 70l-237 237q58 101 44 219t-95 204q-50 49-115.5 75t-131.5 26-131.5-26-114.5-75q-66-66-89.5-156.5t0-180.5 89.5-156q86-86 204-100t218 49l237-237q10-10 19 0l109 109-4 9q-1 2-2 3zM224 288q-77 77-77 189t77 188.5 189 76.5 188.5-76.5 76.5-188.5-76.5-189-186-77-191.5 77z" />
<glyph unicode="&#xe617;" glyph-name="right1" d="M242.237 473.587h511.5v-26.025h-511.5v26.025zM775.758 458.573l-18.018-18.018-297.29 296.289 18.018 18.018zM774.757 457.572l-295.288-295.288-19.019 20.020 295.288 295.288zM337.329 49.173q-80.078 34.033-142.139 96.094t-96.094 142.139q-36.035 83.081-36.035 174.671t36.035 174.671q34.033 80.078 96.094 142.139t142.139 96.094q83.081 35.034 174.671 35.034t174.671-35.034q80.078-34.033 142.139-96.094t96.094-142.139q35.034-83.081 35.034-174.671t-35.034-174.671q-34.033-80.078-96.094-142.139t-142.139-96.094q-83.081-35.034-174.671-35.034t-174.671 35.034zM89.087 462.076q0-114.612 56.555-212.207t154.151-154.151 212.207-56.555 212.207 56.555 154.151 154.151 56.555 212.207-56.555 212.207-154.151 154.151-212.207 56.555-212.207-56.555-154.151-154.151-56.555-212.207z" />
<glyph unicode="&#xe618;" glyph-name="user22" d="M512.5 275.394q-127.124 0-217.212 90.088t-90.088 217.212 90.088 217.212 217.212 90.088 217.212-90.088 90.088-217.212-90.088-217.212-217.212-90.088zM512.5 821.928q-99.097 0-169.165-70.068t-70.068-169.165 70.068-169.165 169.165-70.068 169.165 70.068 70.068 169.165-70.068 169.165-169.165 70.068zM922.401-135.007q-14.514 0-24.524 10.010t-10.010 24.023q0 184.18-95.593 280.274t-279.773 96.094-279.773-96.094-95.593-280.274q0-14.014-10.010-24.023t-24.524-10.010-24.524 10.010-10.010 24.023q0 212.207 116.113 328.321t328.321 116.113 328.321-116.113 116.113-328.321q0-14.014-10.010-24.023t-24.524-10.010z" />
<glyph unicode="&#xe619;" glyph-name="password" d="M811.793 462.577v128.125q0 7.007-1.001 17.517t-6.506 41.541-16.016 59.558-33.032 62.561-52.551 59.058-79.578 42.041-110.608 17.017-110.608-17.017-79.578-42.041-52.551-59.058-33.032-62.561-16.016-59.558-6.506-42.041-1.001-17.017v-128.125h-128.125v-597.584h854.835v597.584h-128.125zM555.543 133.255v-140.137h-86.084v140.137q-42.041 26.025-42.041 73.071 0 36.035 24.524 61.060t60.559 25.024 60.559-25.024 24.524-61.060q0-47.046-42.041-73.071zM725.709 462.577h-426.416v128.125q0 11.011 1.001 23.523t6.006 34.534 13.513 41.541 25.024 41.040 38.037 37.036 55.054 26.025 74.573 10.51 74.573-10.51 55.054-26.025 38.037-37.036 25.024-41.040 13.513-41.541 6.006-34.534 1.001-23.523v-128.125z" />
<glyph unicode="&#xe61a;" glyph-name="weibiaoti2" horiz-adv-x="1367" d="M687.672 960.063q-99.097 0-189.685-39.038t-156.152-104.102-104.102-155.652-38.538-190.186 38.538-189.685 104.102-155.652 156.152-104.102 189.685-38.538 189.685 38.538 156.152 104.102 104.102 155.652 38.538 189.685-38.538 190.186-104.102 155.652-156.152 104.102-189.685 39.038zM688.172 20.145q-91.589 0-175.171 35.535t-143.64 96.094-95.093 143.64-35.034 173.169q0 92.090 35.535 175.171t95.593 143.14 143.14 95.593 174.17 35.535q92.090 0 175.171-36.035t143.14-96.094 95.093-143.14 35.034-173.67-35.034-173.67-95.093-143.64-143.14-96.094-174.671-35.535zM657.642 680.79l-28.027 28.027-237.232-237.232 237.232-240.235 28.027 28.027-191.187 191.187h474.463v39.038h-474.463z" />
<glyph unicode="&#xe61b;" glyph-name="weibiaoti21" horiz-adv-x="1367" d="M690.174-16.891q99.597 0 189.685 38.538t155.652 104.102 104.102 155.652 38.538 189.685-38.538 190.186-104.102 155.652-155.652 104.102-189.685 39.038-190.186-39.038-155.652-104.102-104.102-155.652-39.038-190.186 39.038-189.685 104.102-155.652 155.652-104.102 190.186-38.538zM689.674 920.023q92.090 0 175.171-35.535t143.14-96.094 95.593-143.14 35.535-173.67q0-92.090-36.035-175.171t-96.094-143.14-143.14-95.593-173.67-35.535-173.67 36.035-143.64 96.094-96.094 143.14-35.535 173.67 35.535 173.67 96.094 143.64 143.64 96.094 173.169 35.535zM719.703 259.378l28.027-28.027 237.232 240.235-237.232 237.232-28.027-28.027 191.187-191.187h-474.463v-39.038h474.463z" />
<glyph unicode="&#xe61c;" glyph-name="modify1" horiz-adv-x="1073" d="M998.149 64.529q0-45.102-23.045-77.458t-67.163-32.358h-721.647q-46.084 0-84.324 34.318-38.238 32.358-38.238 75.5v662.818q0 43.143 38.731 74.030t83.832 30.886h496.135v63.735h-496.135q-70.596 0-126.486-47.064-59.811-50.985-59.811-121.581v-662.818q0-70.596 59.811-123.543 55.889-49.026 126.486-49.026h721.647q71.577 0 114.72 52.947 40.203 49.026 40.203 119.623v452.013h-64.713v-452.013zM300.032 121.402l160.803 32.358 549.081 549.081-128.446 128.446-549.081-549.081zM382.395 202.782l8.826 47.064 490.251 490.251 37.26-37.26-489.267-490.251zM1026.585 719.506l46.084 45.102-128.446 129.426-46.084-46.084 126.486-126.486z" />
<glyph unicode="&#xe61e;" glyph-name="ziyuan" horiz-adv-x="1065" d="M272.911 84.718l591.671 811.282 116.202-84.22-592.737-811.282zM232.4-107.175l143.92 90.616-116.202 84.22-43.709-174.836h-217.479v-20.255h1065.008v20.255h-831.537z" />
<glyph unicode="&#xe61f;" glyph-name="set1" d="M918.897 472.587l-86.084 17.017q-6.006 18.018-15.015 36.035l49.048 74.072q11.011 16.016 9.009 36.035t-16.016 35.034l-54.053 54.053q-17.017 16.016-40.039 16.016-17.017 0-31.030-9.009l-74.072-49.048q-18.018 9.009-36.035 15.015l-17.017 86.084q-4.004 20.020-19.519 33.032t-36.536 13.013h-76.074q-20.020 0-35.535-13.013t-19.519-33.032l-18.018-86.084q-18.018-6.006-36.035-15.015l-73.071 49.048q-14.014 9.009-31.030 9.009-24.023 0-40.039-16.016l-54.053-54.053q-15.015-15.015-17.017-35.034t9.009-36.035l49.048-74.072q-8.008-18.018-15.015-36.035l-86.084-17.017q-20.020-4.004-32.532-19.519t-12.512-35.535v-77.075q0-20.020 12.512-35.535t32.532-19.519l86.084-18.018q7.007-18.018 15.015-36.035l-49.048-73.071q-11.011-17.017-9.009-37.036t17.017-34.033l54.053-54.053q16.016-17.017 40.039-17.017 17.017 0 31.030 10.010l73.071 48.047q18.018-8.008 36.035-15.015l18.018-86.084q4.004-20.020 19.519-32.532t35.535-12.512h76.074q21.021 0 36.536 12.512t19.519 32.532l17.017 86.084q18.018 7.007 36.035 15.015l74.072-48.047q14.014-10.010 31.030-10.010 23.022 0 40.039 17.017l54.053 54.053q14.014 14.014 16.016 34.033t-9.009 37.036l-49.048 73.071q9.009 18.018 15.015 36.035l86.084 18.018q20.020 4.004 33.032 19.519t13.013 35.535v77.075q0 20.020-13.013 35.535t-33.032 19.519zM821.803 323.441q-32.031-7.007-42.041-37.036-6.006-16.016-13.013-30.029-14.014-29.028 4.004-56.055l49.048-73.071-54.053-55.054-73.071 49.048q-15.015 10.010-32.031 10.010-13.013 0-24.023-6.006-15.015-7.007-31.030-12.012-30.029-11.011-36.035-43.042l-18.018-86.084h-76.074l-17.017 86.084q-7.007 32.031-37.036 43.042-16.016 5.005-30.029 12.012-12.012 6.006-25.024 6.006-17.017 0-31.030-10.010l-74.072-49.048-54.053 55.054 49.048 73.071q18.018 27.026 4.004 56.055-7.007 15.015-13.013 30.029-10.010 30.029-42.041 37.036l-86.084 17.017v77.075l86.084 17.017q32.031 6.006 42.041 37.036 6.006 15.015 13.013 30.029 14.014 29.028-4.004 56.055l-49.048 73.071 54.053 54.053 74.072-49.048q14.014-9.009 31.030-9.009 13.013 0 25.024 5.005 15.015 8.008 30.029 13.013 30.029 11.011 37.036 42.041l17.017 86.084h76.074l18.018-86.084q6.006-31.030 36.035-42.041 16.016-5.005 31.030-13.013 11.011-5.005 24.023-5.005 17.017 0 32.031 9.009l73.071 49.048 54.053-54.053-49.048-73.071q-18.018-27.026-4.004-56.055 8.008-15.015 13.013-30.029 10.010-31.030 42.041-37.036l86.084-17.017v-77.075zM513.501 586.698q-86.084 0-147.144-61.060t-61.060-147.144 61.060-147.144 147.144-61.060 147.144 61.060 61.060 147.144-61.060 147.144-147.144 61.060zM514.002 222.342q-64.563 0-110.608 46.045t-46.045 110.608 46.045 110.108 110.608 45.544 110.108-45.544 45.544-110.108-45.544-110.608-110.108-46.045z" />
<glyph unicode="&#xe620;" glyph-name="sec03" horiz-adv-x="1025" d="M1020-94v0l-277 277q110 122 110 286 0 116-57 214.5t-155 155.5-214 57-214.5-57-155.5-155.5-57-214.5 57-214 155.5-155 214.5-57q164 0 286 110l277-277q6-4 13-4 9 0 15 6t6 15q0 7-4 13zM426.5 85q-104.5 0-193 51.5t-139.5 140-51 193 51 193 139.5 139.5 193 51 193-51 140-139.5 51.5-193-51.5-193-140-140-193-51.5z" />
<glyph unicode="&#xe621;" glyph-name="left1" d="M512.5 848.954q-105.103 0-194.69-51.55t-141.638-141.138-52.051-194.69 51.55-194.69 141.138-141.638 194.69-52.051 194.69 51.55 141.638 141.138 52.051 194.69v1.001q0 105.103-52.051 194.19t-141.138 141.138-194.19 52.051zM512.5 904.008q90.088 0 172.168-35.034t141.138-94.092 94.092-141.138 35.034-172.168-35.034-172.168-94.092-141.138-141.138-94.092-172.168-35.034-172.168 35.034-141.138 94.092-94.092 141.138-35.034 172.168 35.034 172.168 94.092 141.138 141.138 94.092 172.168 35.034v0zM474.964 285.404q-11.511 0-19.519 8.008l-163.159 167.163 163.159 168.164q8.008 8.008 19.519 8.508t20.020-7.507 8.508-19.519-8.008-19.519q0-1.001-1.001-1.001l-128.125-129.126 128.125-128.125q8.008-8.008 8.008-19.519t-8.008-19.519-19.519-8.008zM706.69 434.549h-356.348q-11.011 0-19.019 8.008t-8.008 19.519 8.008 19.519 19.019 8.008h356.348q11.011 0 19.019-8.008t8.008-19.519-8.008-19.519-19.019-8.008z" />
<glyph unicode="&#xe622;" glyph-name="icon-set" d="M970.948 352.469q-10.010 19.019-19.019 24.023l-82.080 53.052q0 5.005 2.002 13.013t2.002 16.016v29.028l73.071 58.057q11.011 11.011 13.513 27.026t-4.504 31.030l-86.084 149.146-5.005 5.005q-24.023 24.023-53.052 10.010l-92.090-34.033q-7.007 5.005-24.023 14.514t-24.023 14.514l-14.014 87.085q0 19.019-10.010 29.028-19.019 19.019-39.038 19.019h-163.159q-16.016 0-32.532-13.513t-16.516-30.53l-14.014-91.089q-29.028-19.019-48.047-29.028v0l-87.085 34.033q-2.002 0-8.008 2.002t-11.011 2.002q-20.020 0-39.038-19.019l-5.005-5.005-82.080-144.141q-4.004-5.005-4.004-19.019 0-26.025 19.019-39.038v0l77.075-58.057q0-4.004-2.502-12.512t-2.502-16.516v-29.028l-72.070-58.057q-11.011-11.011-14.014-27.026t4.004-30.029l87.085-150.147 5.005-5.005q24.023-24.023 53.052-9.009l91.089 34.033q8.008-5.005 24.524-15.015t24.524-14.014l14.014-92.090q0-18.018 15.015-30.53t33.032-12.512h164.16q16.016 0 32.031 13.013t16.016 30.029l15.015 92.090q7.007 4.004 24.023 14.014t24.023 15.015l87.085-34.033q4.004-5.005 19.019-5.005 27.026 0 43.042 24.023l82.080 145.142q10.010 9.009 10.010 38.037v0zM531.519 285.404q-69.067 0-121.118 50.049t-52.051 118.115q0 69.067 50.549 119.116t122.62 50.049q69.067 0 121.619-50.049t52.551-119.116-51.050-118.616-123.12-49.548z" />
<glyph unicode="&#xe623;" glyph-name="search7" d="M1024 384q0-139-68.5-257t-186.5-186.5-257-68.5-257 68.5-186.5 186.5-68.5 257 68.5 257 186.5 186.5 257 68.5 257-68.5 186.5-186.5 68.5-257zM768 56q-17 0-28 12l-192 192q-12 11-12 28t11.5 28.5 28.5 11.5 28-12l192-192q12-11 12-28t-11.5-28.5-28.5-11.5v0 0zM768 88q-17 0-28 12l-192 192q-12 11-12 28t11.5 28.5 28.5 11.5 28-12l192-192q12-11 12-28t-11.5-28.5-28.5-11.5v0zM573.5 561.5q49.5-49.5 49.5-119.5t-49.5-119.5-119.5-49.5-119.5 49.5-49.5 119.5 49.5 119.5 119.5 49.5 119.5-49.5zM454 579q70 0 119.5-49.5t49.5-119.5-49.5-119.5-119.5-49.5v0 0q-70 0-119.5 49.5t-49.5 119.5 49.5 119.5 119.5 49.5v0 0zM454 643v0q-97 0-165-68-68-69-68-165.5t68.5-164.5 165-68 164.5 68 68 164.5-68 165.5q-68 68-164 68h-1zM454 611q70 0 119.5-49.5t49.5-119.5-49.5-119.5-119.5-49.5v0 0q-70 0-119.5 49.5t-49.5 119.5 49.5 119.5 119.5 49.5v0 0zM454 675v0q-97 0-165-68-68-69-68-165.5t68.5-164.5 165-68 164.5 68 68 164.5-68 165.5q-68 68-164 68h-1z" />
<glyph unicode="&#xe62b;" glyph-name="left2" d="M512 753.861q76.575 0 146.643-29.028 68.066-29.028 120.117-81.079t80.078-119.116q30.029-70.068 30.029-146.643t-30.029-146.643q-28.027-68.066-80.078-120.117t-120.117-80.078q-70.068-30.029-146.643-30.029t-146.643 30.029q-67.065 28.027-119.116 80.078t-81.079 120.117q-29.028 70.068-29.028 146.643t29.028 146.643q29.028 67.065 81.079 119.116t119.116 81.079q70.068 29.028 146.643 29.028zM512.5 825.932q-91.089 0-174.17-35.535t-143.14-95.593-95.593-143.14-35.535-174.17 35.535-174.17 95.593-143.14 143.14-95.093 174.17-35.034 174.17 35.034 143.14 95.093 95.093 143.14 35.034 174.17-35.034 174.17-95.093 143.14-143.14 95.593-174.17 35.535v0zM704.688 413.529h-298.291l131.128 131.128q11.011 10.010 11.011 25.024t-10.51 25.525-25.525 10.51-26.025-11.011l-194.19-194.19v-1.001h-1.001v-0.5t-1.001-0.5v-1.001l-1.001-1.001v-1.001l-1.001-1.001v-0.5t-0.5-1.001-0.5-1.001v-0.5l-0.5-0.5t-0.5-1.501v-1.001l-1.001-2.002v-2.002q-1.001-1.001-1.001-2.002v-10.010l1.001-1.001v-4.004h1.001v-2.002l0.5-0.5t0.5-1.001v-1.001t0.5-0.5 0.5-0.5v-1.501l1.001-1.001v-1.001q1.001 0 1.001-1.001v0 0l1.001-1.001v-1.001h1.001l1.001-1.001v-1.001q1.001 0 2.002-1.001v0l191.187-192.188q11.011-10.010 26.025-10.010t25.525 10.51 10.51 25.024-11.011 25.525l-131.128 130.127h298.291q14.014 0 24.524 10.51t10.51 25.525-10.51 25.525-24.524 10.51z" />
<glyph unicode="&#xe62c;" glyph-name="add5" d="M853.834 356.473q9.009 0 15.515 6.006t6.506 15.015-6.506 15.015-15.515 6.006h-682.667q-9.009 0-15.515-6.006t-6.506-15.015 6.506-15.015 15.515-6.006h682.667zM491.48 36.16q0-9.009 6.006-15.515t15.015-6.506 15.015 6.506 6.006 15.515v682.667q0 9.009-6.006 15.515t-15.015 6.506-15.015-6.506-6.006-15.515v-682.667z" />
<glyph unicode="&#xe62d;" glyph-name="right2" d="M512 753.861q76.575 0 146.643-29.028 68.066-29.028 120.117-81.079t80.078-119.116q30.029-70.068 30.029-146.643t-30.029-146.643q-28.027-68.066-80.078-120.117t-120.117-80.078q-70.068-30.029-146.643-30.029t-146.643 30.029q-67.065 28.027-119.116 80.078t-81.079 120.117q-29.028 70.068-29.028 146.643t29.028 146.643q29.028 67.065 81.079 119.116t119.116 81.079q70.068 29.028 146.643 29.028zM512.5 825.932q-91.089 0-174.17-35.535t-143.14-95.593-95.593-143.14-35.535-174.17 35.535-174.17 95.593-143.14 143.14-95.093 174.17-35.034 174.17 35.034 143.14 95.093 95.093 143.14 35.034 174.17-35.034 174.17-95.093 143.14-143.14 95.593-174.17 35.535v0zM320.313 413.529h297.29l-131.128 131.128q-10.010 10.010-10.010 25.024t10.51 25.525 25.525 10.51 25.024-11.011l192.188-191.187q1.001-1.001 1.001-2.002l3.003-3.003v-1.001q1.001 0 1.001-0.5v-0.5q0-1.001 1.001-1.001v-1.001l1.001-1.001q0-1.001 0.5-1.501l0.5-0.5v-2.002l1.001-1.001v-3.003q1.001 0 1.001-1.001v0 0-14.014l-1.001-1.001v-2.002l-1.001-2.002v-1.501t-0.5-1.001l-1.001-1.001t-0.5-1.501v-0.5t-1.001-0.5v-1.001l-1.001-1.001q0-1.001-1.001-1.001l-0.5-0.5t-0.5-1.001v-0.5l-194.19-194.19q-10.010-10.010-25.024-10.010t-25.525 10.51-10.51 25.024 10.010 25.525l131.128 130.127h-297.29q-15.015 0-25.525 10.51t-10.51 25.525 10.51 25.525 25.525 10.51z" />
<glyph unicode="&#xe631;" glyph-name="search1" d="M349 688q-26-11-50-27-24-17-43-36v0 0q-19-19-36-43v0q-15-23-27-50-4-10 0-19.5t14-13.5q9-4 18.5 0t13.5 13q9 22 22 42v0q15 22 30 36 17 17 36.5 30t40.5 22q10 4 14 13.5t0 19.5q-4 9-14 13t-19 0v0zM989-52v0l-179 180q44 53 71 116 34 82 34 174 0 90-34 171l-1 2q-33 81-96 145l-2 3q-63 63-147 98v0 0q-82 34-172 34-92 0-174.5-35t-145.5-97q-64-65-98-148t-34-173q0-89 33-172l1-2q34-83 98-147v0q64-64 147-98v0q82-35 172.5-35t172.5 35q63 25 117 70l179-180q12-12 29.5-12t28.5 12q13 13 12.5 30t-12.5 29v0zM724 156v0 0l-1-1q-52-52-119-79-67-29-141-29t-141 29v0q-67 27-120 80v0 0q-52 52-81 120v2q-27 67-27 140 0 74 27 141 29 69 81 121 51 51 118.5 79.5t142.5 28.5q74 0 141-28 67-27 120-80l2-2q51-53 78-119l1-2q27-68 27-139 0-74-28-142-27-68-80-120v0zM730 443v0q-10 0-17-7.5t-7-17.5q0-50-19-93v-2q-20-46-53-77-33-35-78-53-44-19-93-19-11 0-18-7t-7-17.5 7-18 18-7.5q57 0 112 23 54 22 95 63 40 41 63 94v1q23 55 23 113 0 10-7.5 17.5t-18.5 7.5v0z" />
<glyph unicode="&#xe632;" glyph-name="right22" d="M512.5 17.142q-90.088 0-172.669 35.034t-142.139 94.592-94.592 142.139-35.034 172.669 35.034 172.669 94.592 142.139 142.139 94.592 172.669 35.034 172.669-35.034 142.139-94.592 94.592-142.139 35.034-172.669-35.034-172.669-94.592-142.139-142.139-94.592-172.669-35.034zM512.5 850.956q-105.103 0-194.69-52.551t-142.139-142.139-52.551-194.69 52.551-195.191 142.139-142.139 194.69-52.051 194.69 52.051 142.139 142.139 52.551 195.191-52.551 194.69-142.139 142.139-194.69 52.551zM530.518 292.411q-8.008 8.008-8.008 19.519t8.008 19.519l102.1 103.101h-315.308q-11.011 0-19.019 8.008t-8.008 19.519 8.008 19.519 19.019 8.008h313.306l-100.098 100.098q-8.008 9.009-8.008 20.52t8.008 19.519 19.519 8.008 19.519-8.008l164.16-169.165-164.16-168.164q-8.008-8.008-19.519-8.008t-19.519 8.008z" />
<glyph unicode="&#xe633;" glyph-name="set12" d="M926.905 386.502q18.018-14.014 22.022-36.035t-7.007-43.042l-81.079-140.137q-11.011-20.020-32.532-27.527t-43.543 0.5l-81.079 33.032q-18.018-13.013-37.036-22.022l-12.012-85.083q-3.003-23.022-20.52-38.037t-39.539-15.015h-163.159q-23.022 0-40.54 15.015t-20.52 37.036l-12.012 86.084q-19.019 10.010-37.036 22.022l-82.080-33.032q-21.021-8.008-42.542-0.5t-31.531 27.527l-82.080 142.139q-11.011 19.019-6.506 41.040t22.522 36.035l68.066 54.053q-1.001 11.011-1.001 21.021t1.001 22.022l-68.066 54.053q-18.018 14.014-22.522 36.035t7.507 42.041l81.079 140.137q11.011 20.020 32.532 28.027t42.542-1.001l81.079-32.031q19.019 12.012 37.036 21.021l13.013 86.084q2.002 22.022 19.519 37.036t40.54 15.015h163.159q23.022 0 40.039-15.015t20.020-37.036l12.012-86.084q20.020-9.009 38.037-21.021l82.080 33.032q20.020 7.007 41.541-0.5t32.532-26.526l82.080-142.139q10.010-20.020 6.006-42.041t-22.022-36.035l-68.066-53.052q1.001-12.012 1.001-22.022t-1.001-22.022zM573.56 77.2v0 0 0zM451.441 76.199v0zM236.231 206.326q0 1.001-0.5 1.001h-0.5zM154.151 573.685v0zM235.23 715.824v0zM573.56 846.952v0zM788.77 716.825q0-1.001 0.5-1.001h0.5zM861.842 333.451l-90.088 70.068 3.003 23.022q3.003 20.020 3.003 35.034t-3.003 35.034l-3.003 23.022 19.019 14.014 71.069 56.055-63.062 111.109-107.105-43.042-18.018 14.014q-28.027 22.022-59.058 34.033l-22.022 9.009-3.003 23.022-13.013 90.088h-128.125l-16.016-113.11-21.021-9.009q-30.029-12.012-60.059-34.033l-19.019-14.014-21.021 8.008-84.082 34.033-64.063-110.108 90.088-70.068-3.003-23.022q-3.003-20.020-3.003-35.034t3.003-35.034l3.003-23.022-90.088-70.068 64.063-111.109 106.104 43.042 18.018-14.014q29.028-22.022 60.059-35.034l21.021-9.009 3.003-23.022 13.013-90.088h128.125l16.016 113.11 21.021 9.009q30.029 12.012 60.059 35.034l19.019 14.014 21.021-9.009 84.082-34.033zM512.5 359.476q42.041 0 72.070 30.029t30.029 72.070-30.029 72.070-72.070 30.029-72.070-30.029-30.029-72.070 30.029-72.070 72.070-30.029zM512.5 278.397q-76.074 0-129.627 53.552t-53.552 129.627 53.552 129.627 129.627 53.552 129.627-53.552 53.552-129.627-53.552-129.627-129.627-53.552z" />
<glyph unicode="&#xe638;" glyph-name="add8" d="M320.313 415.531h384.375v-76.074h-384.375v76.074zM474.463 569.681h76.074v-384.375h-76.074v384.375zM512.5 761.869q-159.155 0-271.765-112.61t-112.61-271.765 112.61-271.765 271.765-112.61 271.765 112.61 112.61 271.765-112.61 271.765-271.765 112.61zM512.5 70.194q-127.124 0-217.212 90.088t-90.088 217.212 90.088 217.212 217.212 90.088 217.212-90.088 90.088-217.212-90.088-217.212-217.212-90.088z" />
<glyph unicode="&#xe646;" glyph-name="left22" d="M512.5 848.954q-105.103 0-194.69-51.55t-141.638-141.138-52.051-194.69 51.55-194.69 141.138-141.638 194.69-52.051 194.69 51.55 141.638 141.138 52.051 194.69v1.001q0 105.103-52.051 194.19t-141.138 141.138-194.19 52.051zM512.5 904.008q90.088 0 172.168-35.034t141.138-94.092 94.092-141.138 35.034-172.168-35.034-172.168-94.092-141.138-141.138-94.092-172.168-35.034-172.168 35.034-141.138 94.092-94.092 141.138-35.034 172.168 35.034 172.168 94.092 141.138 141.138 94.092 172.168 35.034v0zM474.964 285.404q-11.511 0-19.519 8.008l-163.159 167.163 163.159 168.164q8.008 8.008 19.519 8.508t20.020-7.507 8.508-19.519-8.008-19.519q0-1.001-1.001-1.001l-128.125-129.126 128.125-128.125q8.008-8.008 8.008-19.519t-8.008-19.519-19.519-8.008zM706.69 434.549h-356.348q-11.011 0-19.019 8.008t-8.008 19.519 8.008 19.519 19.019 8.008h356.348q11.011 0 19.019-8.008t8.008-19.519-8.008-19.519-19.019-8.008z" />
<glyph unicode="&#xe64b;" glyph-name="set5" d="M561.548-50.925h-95.093q-28.027 0-47.546 20.020t-19.519 48.047v135.132q-11.011 4.004-21.021 8.008l-96.094-96.094q-19.019-20.020-48.047-20.020t-48.047 20.020l-67.065 67.065q-19.019 19.019-19.019 47.046t19.019 48.047l96.094 96.094q-5.005 10.010-9.009 20.020h-136.133q-28.027 0-48.047 20.020t-20.020 48.047v94.092q0 28.027 20.020 48.047t48.047 20.020h135.132l8.008 20.020-96.094 97.095q-20.020 20.020-20.020 48.047t20.020 47.046l67.065 68.066q19.019 19.019 47.546 19.019t47.546-19.019l96.094-96.094q10.010 5.005 20.020 9.009v136.133q0 28.027 20.020 48.047t48.047 20.020h94.092q28.027 0 48.047-20.020t20.020-48.047v-135.132l20.020-8.008 97.095 96.094q19.019 19.019 47.546 19.019t47.546-19.019l67.065-67.065q20.020-20.020 20.020-48.047t-20.020-47.046l-95.093-96.094q5.005-10.010 9.009-20.020h136.133q28.027 0 48.047-20.020t20.020-48.047v-95.093q0-28.027-20.020-47.546t-48.047-19.519h-135.132q-4.004-11.011-8.008-21.021l96.094-96.094q20.020-20.020 20.020-48.047t-20.020-48.047l-67.065-67.065q-19.019-19.019-47.546-19.019t-47.546 19.019l-96.094 96.094q-10.010-5.005-20.020-9.009v-136.133q0-28.027-20.020-48.047t-48.047-20.020zM469.458 20.145h89.087v159.155q0 11.011 7.007 20.52t19.019 13.513q28.027 8.008 54.053 23.022 24.023 13.013 43.042-6.006l111.109-112.109 63.062 63.062-112.109 112.109q-19.019 19.019-6.006 42.041 14.014 27.026 22.022 56.055 3.003 11.011 12.512 18.018t21.521 7.007h158.154v89.087h-159.155q-12.012 0-21.021 7.007t-13.013 19.019q-8.008 28.027-23.022 54.053-13.013 24.023 6.006 43.042l111.109 111.109-62.061 63.062-113.11-112.109q-18.018-19.019-42.041-6.006-26.025 14.014-55.054 22.022-11.011 3.003-18.518 12.512t-7.507 21.521v158.154h-88.086v-159.155q0-12.012-7.007-21.021t-19.019-13.013q-29.028-8.008-55.054-23.022-23.022-13.013-42.041 6.006l-112.109 111.109-62.061-62.061 112.109-113.11q19.019-18.018 6.006-42.041-14.014-26.025-22.022-55.054-4.004-11.011-13.513-18.518t-21.521-7.507h-157.153v-88.086h159.155q11.011 0 20.52-7.007t12.512-19.019q9.009-28.027 24.023-55.054 13.013-23.022-6.006-42.041l-112.109-112.109 63.062-62.061 112.109 112.109q19.019 19.019 42.041 6.006 27.026-14.014 56.055-22.022 11.011-4.004 18.018-13.513t7.007-20.52v-158.154zM512.5 258.377q-83.081 0-142.139 59.058t-59.058 142.139 59.058 142.139 142.139 59.058 142.139-59.058 59.058-142.139-59.058-142.139-142.139-59.058zM512.5 590.702q-54.053 0-92.59-38.538t-38.538-92.59 38.538-92.59 92.59-38.538 92.59 38.538 38.538 92.59-38.538 92.59-92.59 38.538z" />
<glyph unicode="&#xe64d;" glyph-name="hht-modify" d="M512 896q-139 0-257-68.5t-186.5-186.5-68.5-257 68.5-257 186.5-186.5 257-68.5 257 68.5 186.5 186.5 68.5 257-68.5 257-186.5 186.5-257 68.5zM512-64q-185 0-316.5 131.5t-131.5 316.5 131.5 316.5 316.5 131.5 316.5-131.5 131.5-316.5-131.5-316.5-316.5-131.5zM283 232l-14-65q-3-14 4.5-21.5t21.5-4.5l65 15q13 3 25 14.5t15 24.5l-77 77q-13-3-25-15t-15-25zM701 618q-9 10-22.5 10t-22.5-10l-272-271q-9-10-9-23t9-23l45-45q10-9 23-9t23 9l271 272q10 9 10 22.5t-10 22.5z" />
<glyph unicode="&#xe650;" glyph-name="modify3" d="M863.249 631.133l-159.035 153.314-534.311-516.004 159.035-153.314zM140.156 238.695l-58.351-211.665 216.241 58.351zM960.501 807.33l-73.225 72.080q-18.306 17.162-42.905 17.162t-42.905-17.162l-65.216-64.072 159.035-153.314 65.216 64.072q18.306 16.018 18.306 40.617t-18.306 40.617zM835.79-63.356h-756.273q-13.73 0-23.455-9.153t-9.725-22.883 9.725-22.883 23.455-9.153h756.273q13.73 0 23.455 9.153t9.725 22.883-9.725 22.883-23.455 9.153z" />
<glyph unicode="&#xe651;" glyph-name="add9" d="M541.529 662.772h-60.059v-240.235h-239.234v-60.059h239.234v-239.234h60.059v239.234h239.234v60.059h-239.234v240.235zM511.5-43.918q-89.087 0-170.166 34.033-78.076 33.032-138.635 93.591t-93.591 139.636q-34.033 81.079-34.033 169.666t34.033 169.666q33.032 79.077 93.591 139.136t138.635 94.092q81.079 34.033 170.166 34.033t170.166-34.033q78.076-34.033 138.635-94.092t93.591-139.136q34.033-81.079 34.033-169.666t-34.033-169.666q-33.032-79.077-93.591-139.636t-138.635-93.591q-81.079-34.033-170.166-34.033zM511.5 785.892q-106.104 0-196.692-53.052t-143.14-143.14-52.551-196.692 52.551-197.193 143.14-143.14 196.692-52.551 196.692 52.551 143.14 143.14 52.551 197.193-52.551 196.692-143.14 143.14-196.692 53.052z" />
<glyph unicode="&#xe65a;" glyph-name="modify21" d="M982.254 834.61q9.823-13.506 15.962-33.151t-7.367-41.746q-6.139-12.278-12.278-20.873t-9.823-14.734q-4.911-7.367-8.595-13.506l-176.806 106.82q8.595 11.050 18.417 25.784 11.050 15.962 15.962 23.329 17.189 22.101 41.132 25.784t39.904-1.228q17.189-3.683 42.36-19.645t41.132-36.835v0 0zM482.532 321.382q3.683 4.911 15.962 27.012 12.278 20.873 31.923 52.796 15.962 25.784 41.746 67.53 8.595 13.506 46.657 77.353 55.252 89.631 122.782 201.362l175.578-106.82q-66.302-110.504-122.782-202.59-22.101-38.062-45.429-76.125-20.873-34.379-40.518-66.916t-30.695-49.727q-12.278-19.645-13.506-23.329-1.228-1.228-6.139-7.981t-8.595-11.664q-7.367-9.823-17.189-15.962l-29.468-19.645q-18.417-11.050-39.29-22.101t-39.29-22.101q-17.189-9.823-28.24-15.962-18.417-8.595-29.468-2.456t-8.595 27.012q1.228 12.278 1.228 31.923 0 7.367 0.614 22.101t0.614 22.101q1.228 22.101 2.456 41.746 1.228 20.873 3.683 28.24 2.456 12.278 5.525 22.101t10.436 22.101v0 0zM771.070 288.231q50.341-24.556 82.878-63.847t32.537-87.175q0-50.341-34.993-94.542t-96.998-77.353-144.882-52.796-181.103-19.645q-99.453 0-181.717 19.645-82.264 18.417-141.199 50.954t-92.086 76.125-33.151 93.928 31.923 95.77 92.086 79.808 146.11 54.024q85.947 18.417 195.223 17.189l-39.29-79.808q-62.619-2.456-115.415-16.576t-90.859-38.062-58.935-52.796-18.417-58.321q2.456-33.151 30.082-58.321t70.6-42.974 98.225-26.398 112.959-8.595q74.897-1.228 135.060 11.050t102.523 33.765 65.688 48.499 23.329 55.252q0 22.101-11.050 37.448t-25.784 25.17l46.657 78.58z" />
<glyph unicode="&#xe660;" glyph-name="add11" d="M512.5 973.075q-104.102 0-199.195-40.54t-163.66-109.107-109.107-163.159-40.54-198.694 40.54-199.195 109.107-163.66 163.66-109.107 199.195-40.54 198.694 40.54 163.159 109.107 109.107 163.66 40.54 199.195-40.54 198.694-109.107 163.159-163.159 109.107-198.694 40.54zM512.5 13.138q-91.089 0-174.17 35.535t-143.14 95.593-95.593 143.14-35.535 174.17 35.535 174.17 95.593 142.639 143.14 95.593 174.17 36.035 173.67-36.035 142.639-95.593 96.094-142.639 36.035-174.17-36.035-174.17-96.094-143.14-142.639-95.593-173.67-35.535zM704.688 493.607h-160.156v160.156q0 13.013-9.509 22.522t-23.022 9.509-22.522-9.509-9.009-22.522v-160.156h-160.156q-13.013 0-22.522-9.509t-9.509-23.022 9.509-22.522 22.522-9.009h160.156v-160.156q0-13.013 9.009-22.522t22.522-9.509 23.022 9.509 9.509 22.522v160.156h160.156q13.013 0 22.522 9.009t9.509 22.522-9.509 23.022-22.522 9.509z" />
<glyph unicode="&#xe661;" glyph-name="search22" d="M290 623h205q7 0 12 5t5 12-5 12-12 5h-205q-7 0-12-5t-5-12 5-12 12-5zM393 350h-137q-7 0-12-5t-5-12 5-12 12-5h137q7 0 12 5t5 12-5 12-12 5zM341 435q0 7-5 12t-12 5h-102q-7 0-12-5t-5-12 5-12 12-5h102q7 0 12 5t5 12zM222 521h239q7 0 12 5t5 12-5 12-12 5h-239q-7 0-12-5t-5-12 5-12 12-5zM529 350h-68q-7 0-12-5t-5-12 5-12 12-5h68q7 0 12 5t5 12-5 12-12 5zM773 220q-5-5-5-12t5-12l36-36q5-5 12-5t12 5 5 12-5 12l-36 36q-5 5-12 5t-12-5zM999 18l-120 119q-5 5-12 5v0q-7 0-12-5l-48-48q-5-5-5-12t5-12 12-5 12 5l36 36 108-107q15-16 15-37t-15-36-36.5-15-36.5 15l-202 202q-5 5-12 5t-12-5-5-12 5-12l202-202q25-25 60.5-25t60.5 25 25 60.5-25 60.5zM819 486q0 111-55 205.5t-149 149.5-205 55-205.5-55-149.5-149.5-55-205.5 55-205 149.5-149 205.5-55 205 55 149 149 55 205zM409.5 111q-101.5 0-188 50.5t-137 137-50.5 188 50.5 188 137 137 188 50.5 188-50.5 137-137 50.5-188-50.5-188-137-137-188-50.5zM409.5 828q-92.5 0-171-46t-124.5-124.5-46-171 46-171 124.5-124.5 171-46 171 46 124.5 124.5 46 171-46 171-124.5 124.5-171 46zM410 179q-127 0-217.5 90t-90.5 217 90.5 217.5 217.5 90.5 217-90.5 90-217.5-90-217-217-90zM597 452h-204q-8 0-13-5t-5-12 5-12 13-5h204q7 0 12 5t5 12-5 12-12 5zM597 555h-68q-7 0-12-5t-5-12 5-12 12-5h68q7 0 12 5t5 12-5 12-12 5z" />
<glyph unicode="&#xe667;" glyph-name="add82" d="M853.333 711.32q-92.59 92.59-216.211 125.122t-247.742-0.5-216.211-125.122-125.122-216.211 0-247.742 125.623-216.211 216.712-125.122 247.742 0 215.711 125.122 125.122 216.712 0 247.742-125.623 216.211zM747.73 323.441h-197.193v-197.193q0-16.016-10.51-27.026t-26.025-11.011-26.526 11.011-11.011 26.025v198.194h-197.193q-15.015 0-26.025 10.51t-11.011 26.025 11.011 26.526 26.025 11.011h197.193v197.193q0 15.015 11.011 26.025t26.526 11.011 26.025-11.011 10.51-26.025v-197.193h197.193q16.016 0 26.526-10.51t10.51-26.025-10.51-26.526-26.526-11.011z" />
<glyph unicode="&#xe67f;" glyph-name="add12" d="M508.497 901.005q-91.089 0-174.17-35.535t-143.14-95.593-95.593-143.14-35.535-174.671 35.535-174.671 95.593-143.14 143.14-95.593 174.17-35.535 174.17 35.535 143.14 95.593 95.593 143.14 35.535 174.671-35.535 174.671-95.593 143.14-143.14 95.593-174.17 35.535zM508.497 39.163q-112.109 0-207.202 55.554t-150.647 150.647-55.554 206.702 55.554 206.702 150.647 150.647 207.202 55.554 207.202-55.554 150.147-150.647 55.054-206.702-55.054-206.702-150.147-150.647-207.202-55.554zM526.514 720.829h-36.035v-251.245h-250.244v-35.034h250.244v-250.244h36.035v250.244h251.245v35.034h-251.245v251.245z" />
<glyph unicode="&#xe690;" glyph-name="set11" horiz-adv-x="1026" d="M614.6-20.895h-215.21q-19.019 0-24.023 19.019l-25.024 98.096-85.083-54.053q-16.016-11.011-30.029 3.003l-153.15 148.145q-14.014 15.015-3.003 31.030l59.058 92.090-99.097 19.019q-9.009 2.002-14.514 8.508t-5.505 15.515v211.206q0 9.009 5.505 15.515t13.513 8.508l106.104 24.023-54.053 79.077q-12.012 17.017 3.003 32.031l152.149 150.147q13.013 13.013 30.029 3.003l88.086-53.052 23.022 93.091q4.004 19.019 24.023 19.019h215.21q19.019 0 23.022-19.019l24.023-97.095 84.082 47.046q16.016 9.009 30.029-3.003l153.15-148.145q15.015-14.014 4.004-31.030l-57.056-88.086 98.096-23.022q19.019-5.005 19.019-24.023v-211.206q0-9.009-5.505-16.016t-14.514-8.008l-101.099-19.019 56.055-80.078q12.012-18.018-3.003-32.031l-153.15-149.146q-13.013-13.013-29.028-3.003l-94.092 54.053-21.021-93.091q-2.002-8.008-8.508-13.513t-15.515-5.505zM418.409 28.152h176.172l25.024 107.105q3.003 12.012 14.014 17.017t22.022-1.001l106.104-63.062 125.122 122.119-66.065 95.093q-8.008 11.011-3.003 23.022t18.018 15.015l119.116 21.021v171.167l-113.11 27.026q-12.012 3.003-17.017 14.514t2.002 22.522l65.064 101.099-126.123 121.118-97.095-55.054q-10.010-6.006-21.521-1.001t-14.514 16.016l-27.026 111.109h-176.172l-27.026-107.105q-3.003-12.012-14.514-17.017t-21.521 2.002l-100.098 60.059-124.121-122.119 63.062-92.090q8.008-11.011 3.003-23.022t-17.017-15.015l-123.12-27.026v-171.167l115.112-22.022q13.013-3.003 18.018-15.015t-2.002-23.022l-68.066-105.103 124.121-121.118 98.096 62.061q10.010 7.007 22.022 2.502t15.015-16.516zM514.002 267.386q-80.579 0-137.634 57.056t-57.056 137.134 57.056 137.134 137.634 57.056 137.634-57.056 57.056-137.134-57.056-137.134-137.634-57.056zM513.501 606.717q-60.059 0-102.6-42.542t-42.542-102.6 42.542-102.6 102.6-42.542 102.6 42.542 42.542 102.6-42.542 102.6-102.6 42.542z" />
<glyph unicode="&#xe6a7;" glyph-name="set2" d="M1012.989 294.413v166.162h-135.132q-14.014 61.060-48.047 116.113l95.093 96.094-117.114 117.114-96.094-95.093q-55.054 34.033-116.113 48.047v135.132h-166.162v-135.132q-61.060-14.014-116.113-48.047l-96.094 95.093-117.114-117.114 95.093-96.094q-34.033-55.054-48.047-116.113h-135.132v-166.162h135.132q14.014-61.060 48.047-116.113l-95.093-96.094 117.114-117.114 96.094 95.093q55.054-34.033 116.113-48.047v-135.132h166.162v135.132q61.060 14.014 116.113 48.047l96.094-95.093 117.114 117.114-95.093 96.094q34.033 55.054 48.047 116.113h135.132zM512.5 169.29q-86.084 0-147.144 61.060t-61.060 147.144 61.060 147.144 147.144 61.060 147.144-61.060 61.060-147.144-61.060-147.144-147.144-61.060z" />
<glyph unicode="&#xe6ae;" glyph-name="search2" d="M660 59l90 91 272-271-90-91zM384 812q-106 0-194-51t-139-139-51-194q0-104 51.5-192.5t140-140 192.5-51.5 192.5 51.5 140 140 51.5 192.5q0 105-51.5 193.5t-140 139.5-192.5 51zM384 108q-87 0-160.5 43t-116.5 116.5-43 160.5 43 160.5 116.5 116.5 160.5 43 160.5-43 116.5-116.5 43-160.5-43-160.5-116.5-116.5-160.5-43z" />
<glyph unicode="&#xe6f4;" glyph-name="left3" d="M512.5 974.076q-139.136 0-257.251-68.567t-186.682-186.682-68.567-257.251 68.567-257.251 186.682-186.682 257.251-68.567 257.251 68.567 186.682 186.682 68.567 257.251-68.567 257.251-186.682 186.682-257.251 68.567zM825.806 432.547h-560.547l141.138-142.139 51.050-50.049q6.006-9.009 5.505-19.519t-8.508-18.518-20.020-8.008-20.020 8.008l-62.061 62.061-173.169 174.17q-9.009 9.009-8.008 22.022v1.001q-1.001 13.013 8.008 22.022l176.172 177.173 43.042 43.042 16.016 15.015q9.009 10.010 23.022 10.010 11.011 0 20.020-8.008 14.014-15.015 4.004-34.033l-59.058-60.059-9.009-8.008-128.125-129.126h560.547q12.012 0 20.020-8.508t8.008-20.020-8.008-20.020-20.020-8.508v0z" />
<glyph unicode="&#xe7bf;" glyph-name="add1" d="M512.5-118.991q-205.2 0-350.843 145.642t-145.642 350.843 145.642 350.843 350.843 145.642 350.843-145.642 145.642-350.843-145.642-350.843-350.843-145.642zM512.5 811.918q-180.176 0-307.3-127.124t-127.124-307.3 127.124-307.3 307.3-127.124 307.3 127.124 127.124 307.3-127.124 307.3-307.3 127.124zM714.698 347.464h-172.168v-172.168q0-13.013-8.508-21.521t-21.521-8.508-21.521 8.508-8.508 21.521v172.168h-172.168q-13.013 0-21.521 8.508t-8.508 21.521 8.508 21.521 21.521 8.508h172.168v172.168q0 13.013 8.508 21.521t21.521 8.508 21.521-8.508 8.508-21.521v-172.168h172.168q13.013 0 21.521-8.508t8.508-21.521-8.508-21.521-21.521-8.508z" />
<glyph unicode="&#xe800;" glyph-name="cancel-1" horiz-adv-x="805" d="M804.783 132.75q0-26.712-18.213-46.139l-92.278-92.278q-19.427-18.213-46.139-18.213t-46.139 18.213l-199.127 200.341-199.127-200.341q-19.427-18.213-46.139-18.213t-46.139 18.213l-92.278 92.278q-19.427 19.427-19.427 46.139t19.427 46.139l199.127 199.127-199.127 199.127q-19.427 19.427-19.427 46.139t19.427 46.139l92.278 92.278q19.427 19.427 46.139 19.427t46.139-19.427l199.127-199.127 199.127 199.127q19.427 19.427 46.139 19.427t46.139-19.427l92.278-92.278q18.213-18.213 18.213-46.139t-18.213-46.139l-199.127-199.127 199.127-199.127q18.213-18.213 18.213-46.139z" />
<glyph unicode="&#xe801;" glyph-name="help-circled" horiz-adv-x="879" d="M512.5 33.093v109.675q0 8.2-5.125 13.325t-13.325 5.125h-109.675q-8.2 0-13.325-5.125t-5.125-13.325v-109.675q0-8.2 5.125-13.325t13.325-5.125h109.675q8.2 0 13.325 5.125t5.125 13.325zM659.076 417.469q0 50.225-31.775 93.275t-78.925 66.625-97.375 23.575q-139.4 0-212.175-121.975-9.225-13.325 4.1-24.6l75.85-56.375q4.1-4.1 10.25-4.1 9.225 0 14.35 7.175 30.75 38.95 49.2 52.275 19.475 14.35 49.2 14.35 27.675 0 49.2-15.375t21.525-33.825q0-21.525-11.275-34.85t-38.95-25.625q-35.875-15.375-66.625-49.2t-29.725-71.75v-20.5q0-8.2 5.125-13.325t13.325-5.125h109.675q8.2 0 13.325 5.125t5.125 13.325q0 10.25 12.3 27.675t30.75 28.7q18.45 10.25 28.7 16.4t25.625 19.475 25.625 27.675 16.4 34.85 7.175 46.125zM878.426 307.794q0-119.925-58.425-220.375t-159.9-159.9-220.375-59.45-221.4 59.45-158.875 159.9-59.45 220.375 59.45 220.375 158.875 159.9 221.4 59.45 220.375-59.45 159.9-159.9 58.425-220.375z" />
<glyph unicode="&#xe802;" glyph-name="cancel-outline" horiz-adv-x="747" d="M747.226 165.318q0-65.6-47.15-112.75t-112.75-48.175-112.75 48.175l-100.45 99.425-101.475-99.425q-44.075-45.1-112.75-45.1t-112.75 45.1q-47.15 47.15-47.15 112.75 0 66.625 47.15 113.775l100.45 100.45-100.45 99.425q-47.15 47.15-47.15 113.775 0 65.6 47.15 112.75 45.1 45.1 112.75 45.1t112.75-45.1l101.475-99.425 100.45 99.425q44.075 45.1 112.75 45.1t113.775-45.1q46.125-46.125 46.125-112.75 0-67.65-46.125-113.775l-101.475-99.425 101.475-100.45q46.125-46.125 46.125-113.775zM374.125 303.694l175.275-175.275q15.375-15.375 37.925-15.375t37.925 15.375 15.375 36.9q0 22.55-15.375 37.925l-175.275 176.3 175.275 175.275q15.375 15.375 15.375 37.925t-15.375 37.925-37.925 15.375-37.925-15.375l-175.275-176.3-176.3 176.3q-15.375 15.375-37.925 15.375t-36.9-15.375q-16.4-17.425-16.4-37.925 0-21.525 16.4-37.925l175.275-175.275-175.275-176.3q-16.4-16.4-16.4-37.925 0-20.5 16.4-36.9 15.375-15.375 36.9-15.375t37.925 15.375z" />
<glyph unicode="&#xe803;" glyph-name="edit" horiz-adv-x="925" d="M0.452-128v837.632l192.512 186.368h533.504v-231.424l31.744 31.744 165.888-163.84-389.12-390.144-244.736-79.872 77.824 243.712 268.288 268.288v231.424h-377.856v-159.744h-167.936v-684.032h545.792v146.432l90.112 89.088v-325.632h-726.016zM370.115 142.336l121.856 39.936-81.92 83.968z" />
<glyph unicode="&#xe804;" glyph-name="edit-alt" d="M0.5-134.499v1023.998h661.503l-167.936-167.936h-325.631v-688.127h688.127v326.655l167.936 167.936v-662.528h-1023.998zM372.212 237.213v120.831h6.144q39.936 2.048 73.728-30.72 39.936-39.936 39.936-90.111h-119.808zM424.436 417.436l375.807 375.807 128-128-375.807-375.807zM830.964 823.963l65.535 65.535 128-128-65.535-65.535z" />
<glyph unicode="&#xe805;" glyph-name="dot-3" horiz-adv-x="943" d="M112.75 490.244q47.15 0 79.95-32.8t32.8-79.95q0-45.1-32.8-78.925t-79.95-33.825-79.95 33.825-32.8 78.925q0 47.15 32.8 79.95t79.95 32.8zM471.5 490.244q47.15 0 79.95-32.8t32.8-79.95q0-45.1-33.825-78.925t-78.925-33.825-78.925 33.825-33.825 78.925q0 47.15 32.8 79.95t79.95 32.8zM830.251 490.244q47.15 0 79.95-32.8t32.8-79.95q0-45.1-32.8-78.925t-79.95-33.825-79.95 33.825-32.8 78.925q0 47.15 32.8 79.95t79.95 32.8z" />
<glyph unicode="&#xe806;" glyph-name="list" d="M0 150.824v184.5h184.5v-184.5h-184.5zM0 430.65v184.5h184.5v-184.5h-184.5zM0 711.5v184.5h184.5v-184.5h-184.5zM272.65 150.824v184.5h752.351v-184.5h-752.351zM272.65 430.65v184.5h752.351v-184.5h-752.351zM272.65 711.5v184.5h752.351v-184.5h-752.351z" />
<glyph unicode="&#xe807;" glyph-name="down-open-big" horiz-adv-x="888" d="M64.575 602.994l379.25-364.9 381.3 364.9q22.55 26.65 49.2 0 26.65-22.55 0-49.2l-405.9-401.8q-22.55-22.55-49.2 0l-405.9 401.8q-26.65 26.65 0 49.2 24.6 24.6 51.25 0z" />
<glyph unicode="&#xe808;" glyph-name="up-open-big" horiz-adv-x="886" d="M824.101 151.993l-381.3 366.95-379.25-366.95q-26.65-22.55-51.25 0-24.6 24.6 0 51.25l405.9 399.75q26.65 26.65 49.2 0l405.9-399.75q24.6-26.65 0-51.25-26.65-22.55-49.2 0z" />
<glyph unicode="&#xe80c;" glyph-name="th-list" d="M1025.001 889.994v-164h-1025.001v164h1025.001zM1025.001 602.994v-164h-1025.001v164h1025.001zM1025.001 315.994v-164h-1025.001v164h1025.001zM1025.001 28.993v-164h-1025.001v164h1025.001z" />
<glyph unicode="&#xe80f;" glyph-name="cancel" d="M645.631 377.644l299.29-299.29-133.21-133.21-299.29 299.29-299.29-299.29-133.21 133.21 299.29 299.29-299.29 299.29 133.21 133.21 299.29-299.29 299.29 299.29 133.21-133.21z" />
<glyph unicode="&#xe830;" glyph-name="spin1" d="M508.4 889.994c-180.4 0-339.275-92.25-431.525-231.65-18.45-27.675-33.825-56.375-47.15-87.125-12.3-29.725-21.525-61.5-28.7-94.3 0 0 0-1.025 0-1.025v0 0c0-1.025 0-2.050 0-2.050 0-7.175 5.125-12.3 11.275-12.3h103.525c5.125 0 10.25 4.1 11.275 9.225 29.725 115.825 111.725 211.15 219.35 259.325 20.5 10.25 42.025 17.425 64.575 23.575 31.775 7.175 63.55 11.275 97.375 11.275v0 0 0c25.625 0 51.25-2.050 75.85-7.175 5.125-1.025 10.25-2.050 14.35-3.075 6.15-1.025 10.25-3.075 14.35-4.1v0c5.125-1.025 11.275 1.025 13.325 6.15l52.275 89.175c0 0 1.025 1.025 1.025 2.050 2.050 6.15-1.025 13.325-7.175 15.375-22.55 7.175-44.075 13.325-66.625 17.425-5.125 1.025-9.225 1.025-13.325 2.050-27.675 5.125-55.35 7.175-84.050 7.175v0 0zM843.576 773.144c-5.125 0-9.225-2.050-11.275-6.15l-51.25-89.175c-3.075-4.1-2.050-10.25 2.050-14.35 29.725-29.725 55.35-64.575 74.825-103.525 4.1-7.175 7.175-14.35 11.275-22.55 19.475-47.15 30.75-99.425 30.75-154.775v0 0c0-78.925-22.55-152.725-63.55-214.225-7.175-11.275-15.375-23.575-24.6-33.825-9.225-11.275-18.45-21.525-28.7-31.775v0 0 0c-4.1-4.1-5.125-10.25-2.050-14.35l51.25-89.175c0-1.025 1.025-2.050 2.050-3.075 4.1-5.125 11.275-5.125 16.4-1.025 59.45 53.3 106.6 119.925 137.35 194.75 6.15 15.375 11.275 29.725 15.375 45.1 14.35 47.15 21.525 96.35 21.525 147.6 0 110.7-34.85 214.225-94.3 298.275-11.275 16.4-23.575 31.775-37.925 47.15-13.325 14.35-26.65 28.7-42.025 42.025v0c-1.025 1.025-1.025 1.025-2.050 1.025-2.050 1.025-4.1 2.050-5.125 2.050zM12.3 293.444v0c-1.025 0-2.050 0-3.075 0-6.15-1.025-10.25-8.2-9.225-14.35 34.85-170.15 152.725-309.55 309.55-375.15 30.75-12.3 62.525-21.525 95.325-28.7 32.8-6.15 67.65-10.25 102.5-10.25v0 0c41 0 80.975 5.125 119.925 14.35 7.175 1.025 14.35 3.075 22.55 5.125 6.15 2.050 13.325 5.125 20.5 7.175 1.025 0 2.050 1.025 3.075 1.025 6.15 3.075 8.2 10.25 4.1 16.4l-51.25 89.175c-3.075 5.125-8.2 7.175-13.325 6.15-14.35-4.1-28.7-7.175-43.050-9.225-3.075-1.025-6.15-1.025-8.2-2.050-18.45-2.050-35.875-3.075-54.325-3.075v0 0c-131.2 0-248.050 64.575-318.775 164-1.025 0-1.025 0-1.025 0-13.325 19.475-25.625 41-35.875 62.525s-18.45 44.075-24.6 66.625c-1.025 6.15-6.15 10.25-11.275 10.25h-103.525z" />
<glyph unicode="&#xe831;" glyph-name="spin2" d="M47.15 166.343v0c0 0-1.025 0-1.025 0-8.2 18.45-15.375 37.925-21.525 56.375-6.15 19.475-11.275 38.95-15.375 59.45-19.475 101.475-8.2 208.075 35.875 305.45 3.075 6.15 10.25 8.2 15.375 5.125 1.025 0 2.050 0 2.050-1.025v0l82-60.475c5.125-3.075 6.15-9.225 4.1-14.35-5.125-12.3-9.225-25.625-12.3-37.925-4.1-13.325-7.175-26.65-9.225-41-11.275-68.675-3.075-140.425 23.575-206.025 2.050-5.125 0-10.25-4.1-13.325v0l-82-57.4c-5.125-4.1-12.3-2.050-16.4 3.075-1.025 0-1.025 1.025-1.025 2.050v0zM170.15 754.694v0c0 1.025 0 1.025 0 1.025 15.375 13.325 30.75 25.625 47.15 37.925 16.4 11.275 33.825 22.55 52.275 31.775 91.225 51.25 196.8 73.8 304.425 61.5 6.15-1.025 10.25-6.15 10.25-13.325 0-1.025-1.025-1.025-1.025-2.050v0l-31.775-96.35c-2.050-5.125-8.2-8.2-13.325-7.175-13.325 0-27.675 0-41 0-14.35-1.025-27.675-2.050-41-4.1-69.7-11.275-136.325-41-190.65-86.1-4.1-3.075-10.25-3.075-14.35 0v0l-80.975 59.45c-5.125 3.075-6.15 11.275-2.050 16.4 0 0 1.025 1.025 2.050 1.025v0zM772.851 821.319v0c0 0 1.025 0 1.025 0 17.425-10.25 34.85-21.525 51.25-32.8 16.4-12.3 31.775-25.625 47.15-38.95 75.85-70.725 130.175-164 151.7-268.55 2.050-6.15-2.050-12.3-9.225-13.325-1.025 0-1.025 0-2.050 0v0l-102.5 1.025c-5.125 0-10.25 4.1-11.275 9.225-3.075 13.325-8.2 26.65-12.3 38.95-5.125 12.3-10.25 25.625-17.425 36.9-31.775 62.525-79.95 115.825-140.425 153.75-5.125 3.075-6.15 8.2-5.125 13.325v0l31.775 94.3c2.050 6.15 9.225 9.225 15.375 7.175 1.025 0 2.050-1.025 2.050-1.025v0zM1022.951 272.944v0c0 0 0 0 0 0-4.1-20.5-9.225-39.975-15.375-58.425-7.175-19.475-14.35-37.925-22.55-56.375-45.1-94.3-116.85-174.25-210.125-226.525-6.15-3.075-13.325-1.025-16.4 4.1 0 1.025-1.025 2.050-1.025 2.050v0l-30.75 96.35c-2.050 6.15 1.025 12.3 6.15 14.35 11.275 7.175 22.55 15.375 32.8 23.575 11.275 9.225 21.525 18.45 30.75 27.675 50.225 49.2 86.1 111.725 103.525 180.4 2.050 5.125 6.15 8.2 11.275 8.2v0l100.45-1.025c6.15 0 11.275-5.125 11.275-11.275 0-1.025 0-2.050 0-3.075v0zM574.001-131.932v0c0 0 0 0 0 0-20.5-2.050-41-3.075-61.5-3.075s-41 1.025-60.475 4.1c-104.55 12.3-202.95 55.35-282.9 128.125-5.125 4.1-5.125 11.275 0 16.4 0 0 1.025 1.025 1.025 1.025v0l83.025 59.45c5.125 3.075 12.3 2.050 16.4-2.050 10.25-8.2 20.5-16.4 32.8-23.575 11.275-7.175 22.55-14.35 34.85-20.5 63.55-31.775 134.275-46.125 205-42.025 6.15 0 10.25-3.075 12.3-8.2v0l29.725-94.3c2.050-6.15-1.025-12.3-7.175-14.35-1.025-1.025-2.050-1.025-3.075-1.025v0z" />
<glyph unicode="&#xe832;" glyph-name="spin3" d="M506.35 889.994c-272.65 0-495.075-215.25-506.35-483.8-1.025-19.475 13.325-20.5 13.325-20.5h86.1c16.4 0 19.475 10.25 19.475 18.45 10.25 203.975 180.4 366.95 387.45 366.95 109.675 0 210.125-46.125 279.825-120.95l-59.45-58.425c-11.275-12.3-11.275-27.675 5.125-31.775l253.175-51.25c21.525-5.125 47.15 11.275 37.925 45.1l-59.45 232.675c-2.050 9.225-16.4 22.55-29.725 13.325l-66.625-61.5c-91.225 93.275-219.35 151.7-360.8 151.7zM925.576 369.294c-16.4 0-19.475-10.25-19.475-18.45-10.25-203.975-180.4-366.95-386.425-366.95-110.7 0-210.125 46.125-280.85 120.95l60.475 58.425c10.25 12.3 10.25 27.675-5.125 31.775l-254.2 51.25c-21.525 5.125-47.15-11.275-37.925-45.1l59.45-232.675c2.050-9.225 16.4-22.55 30.75-13.325l65.6 61.5c91.225-93.275 219.35-151.7 361.825-151.7 271.625 0 494.050 215.25 505.325 484.825 1.025 18.45-13.325 19.475-13.325 19.475h-86.1z" />
<glyph unicode="&#xe834;" glyph-name="spin4" horiz-adv-x="1026" d="M510.45 889.994c-116.85 0-233.7-39.975-328-118.9v0c177.325 143.5 438.7 133.25 602.701-31.775 137.35-137.35 168.1-340.3 91.225-507.375-10.25-29.725-5.125-51.25 12.3-69.7 21.525-20.5 62.525-23.575 86.1 0 3.075 3.075 12.3 15.375 15.375 24.6 72.775 184.5 33.825 402.825-114.8 552.476-101.475 100.45-233.7 150.675-364.9 150.675zM91.225 609.144c-14.35 0-29.725-5.125-39.975-16.4-3.075-3.075-13.325-15.375-15.375-24.6-72.775-184.5-34.85-402.825 114.8-552.476 189.625-189.625 490.975-199.875 692.901-31.775v0c-177.325-143.5-438.7-133.25-603.726 31.775-137.35 137.35-167.075 341.325-91.225 507.375 11.275 29.725 6.15 51.25-12.3 69.7-11.275 11.275-27.675 17.425-45.1 16.4z" />
<glyph unicode="&#xe838;" glyph-name="spin5" d="M473.55 889.994c-6.15 0-11.275-5.125-11.275-11.275v-187.575c0-6.15 5.125-11.275 11.275-11.275h70.725c1.025 0 1.025 0 1.025 0 7.175 0 12.3 5.125 12.3 11.275v187.575c0 6.15-5.125 11.275-12.3 11.275h-70.725c0 0 0 0-1.025 0zM729.801 841.819c-4.1 1.025-8.2-2.050-10.25-5.125l-93.275-161.95c-4.1-6.15-2.050-13.325 4.1-16.4l61.5-34.85c0-1.025 0-1.025 0-1.025 6.15-3.075 13.325-1.025 16.4 4.1l93.275 161.95c3.075 6.15 2.050 13.325-4.1 16.4l-62.525 35.875c-1.025 1.025-3.075 1.025-5.125 1.025zM291.1 839.769c-2.050 0-4.1-1.025-6.15-2.050l-62.525-35.875c-5.125-3.075-7.175-10.25-4.1-16.4l93.275-160.925c0 0 0 0 0 0 3.075-6.15 10.25-8.2 16.4-5.125l62.525 35.875c5.125 4.1 7.175 11.275 4.1 16.4l-93.275 160.925c0 1.025 0 1.025 0 1.025-2.050 4.1-6.15 6.15-10.25 6.15zM926.601 672.694c-2.050 0-4.1 0-6.15-1.025l-160.925-93.275c0 0 0 0 0 0-6.15-3.075-8.2-10.25-5.125-16.4l35.875-62.525c4.1-5.125 11.275-7.175 16.4-4.1l160.925 93.275c1.025 0 1.025 0 1.025 0 6.15 3.075 7.175 11.275 4.1 16.4l-35.875 62.525c-2.050 4.1-6.15 6.15-10.25 5.125zM96.35 668.594c-5.125 0-9.225-2.050-11.275-6.15l-35.875-62.525c-3.075-5.125-1.025-12.3 4.1-15.375l161.95-93.275c6.15-4.1 13.325-2.050 16.4 4.1l35.875 61.5c0 0 0 0 0 0 3.075 6.15 1.025 13.325-4.1 16.4l-161.95 93.275c-2.050 1.025-4.1 2.050-5.125 2.050zM826.151 427.719v0c-6.15 0-11.275-5.125-11.275-11.275v-70.725c0-1.025 0-1.025 0-1.025 0-7.175 5.125-12.3 11.275-12.3h187.575c6.15 0 11.275 5.125 11.275 12.3v70.725c0 0 0 0 0 1.025 0 6.15-5.125 11.275-11.275 11.275h-187.575zM12.3 422.594v0c-7.175 0-12.3-5.125-12.3-12.3v-70.725c0 0 0 0 0-1.025 0-6.15 5.125-11.275 12.3-11.275h186.55c6.15 0 11.275 5.125 11.275 11.275v70.725c0 1.025 0 1.025 0 1.025 0 7.175-5.125 12.3-11.275 12.3h-186.55zM803.601 265.769c-4.1 0-8.2-2.050-10.25-6.15l-34.85-61.5c-1.025 0-1.025 0-1.025 0-3.075-6.15-1.025-13.325 4.1-16.4l161.95-93.275c6.15-3.075 13.325-1.025 16.4 4.1l35.875 62.525c3.075 5.125 1.025 12.3-4.1 15.375l-161.95 94.3c-2.050 1.025-4.1 1.025-6.15 1.025zM223.45 260.644c-1.025 0-3.075 0-5.125-1.025l-160.925-93.275c0 0-1.025 0-1.025 0-5.125-3.075-7.175-10.25-4.1-16.4l35.875-62.525c3.075-5.125 10.25-7.175 16.4-4.1l160.925 93.275c0 0 0 0 0 0 6.15 3.075 8.2 10.25 5.125 16.4l-35.875 62.525c-3.075 3.075-7.175 6.15-11.275 5.125zM703.151 136.618c-2.050 0-4.1 0-6.15-1.025l-62.525-35.875c-5.125-4.1-7.175-11.275-4.1-16.4l93.275-160.925c0-1.025 0-1.025 0-1.025 3.075-6.15 11.275-7.175 16.4-4.1l62.525 35.875c5.125 3.075 7.175 10.25 4.1 16.4l-93.275 160.925c0 0 0 0 0 0-2.050 4.1-6.15 6.15-10.25 6.15zM326.975 134.568c-4.1 0-8.2-2.050-10.25-6.15l-93.275-161.95c-3.075-6.15-1.025-13.325 4.1-16.4l62.525-35.875c5.125-3.075 12.3-1.025 15.375 4.1l94.3 161.95c3.075 6.15 1.025 13.325-5.125 16.4l-61.5 35.875c0 0 0 0 0 0-2.050 1.025-4.1 1.025-6.15 2.050zM479.7 75.118c-7.175 0-12.3-5.125-12.3-11.275v-187.575c0-6.15 5.125-11.275 12.3-11.275h70.725c0 0 0 0 1.025 0 6.15 0 11.275 5.125 11.275 11.275v187.575c0 6.15-5.125 11.275-11.275 11.275h-70.725c-1.025 0-1.025 0-1.025 0z" />
<glyph unicode="&#xe83f;" glyph-name="progress-1" d="M572.976 618.369h-120.95v271.625h120.95v-271.625zM572.976-135.007h-120.95v271.625h120.95v-271.625zM0 437.969h271.625v-120.95h-271.625v120.95zM299.3 505.619l-191.675 191.675 85.075 85.075 191.675-191.675zM832.301-27.382l-191.675 191.675 85.075 85.075 191.675-191.675zM832.301 782.369l85.075-85.075-191.675-191.675-85.075 85.075zM192.7-27.382l-85.075 85.075 191.675 191.675 85.075-85.075z" />
<glyph unicode="&#xe840;" glyph-name="progress-2" d="M572.976 688.069h-120.95v271.625h120.95v-271.625zM572.976-65.307h-120.95v271.625h120.95v-271.625zM753.376 386.719v120.95h271.625v-120.95h-271.625zM0 507.669h271.625v-120.95h-271.625v120.95zM299.3 575.319l-191.675 191.675 85.075 85.075 191.675-191.675zM832.301 852.069l85.075-85.075-191.675-191.675-85.075 85.075zM192.7 42.318l-85.075 85.075 191.675 191.675 85.075-85.075z" />
<glyph unicode="&#xe841;" glyph-name="progress-3" d="M572.976 688.069h-120.95v271.625h120.95v-271.625zM753.376 386.719v120.95h271.625v-120.95h-271.625zM0 507.669h271.625v-120.95h-271.625v120.95zM299.3 575.319l-191.675 191.675 85.075 85.075 191.675-191.675zM832.301 42.318l-191.675 191.675 85.075 85.075 191.675-191.675zM832.301 852.069l85.075-85.075-191.675-191.675-85.075 85.075zM192.7 42.318l-85.075 85.075 191.675 191.675 85.075-85.075z" />
<glyph unicode="&#xe861;" glyph-name="t-shirt" d="M4.1 543.544q-14.35 42.025 20.5 70.725l159.9 128.125q17.425 13.325 39.975 13.325h576.051q22.55 0 39.975-13.325l160.925-128.125q33.825-28.7 19.475-70.725l-63.55-191.675q-10.25-29.725-39.975-39.975-10.25-4.1-20.5-4.1-18.45 0-31.775 8.2v-392.575q0-25.625-19.475-45.1t-45.1-19.475h-576.051q-26.65 0-45.1 19.475t-19.475 45.1v392.575q-13.325-8.2-31.775-8.2-10.25 0-19.475 4.1-30.75 10.25-39.975 39.975zM64.575 564.044l63.55-191.675 96.35 63.55v-512.5h576.051v512.5l96.35-63.55 64.575 191.675-160.925 128.125h-134.275q-13.325-42.025-55.35-68.675t-98.4-27.675-98.4 27.675-55.35 68.675h-134.275zM392.575 692.169q14.35-27.675 46.125-46.125t73.8-18.45 73.8 18.45 46.125 46.125h-239.85z" />
<glyph unicode="&#xe862;" glyph-name="ok-1" d="M956.326 496.394q0-22.55-16.4-38.95l-492-492q-16.4-15.375-38.95-15.375t-38.95 15.375l-284.95 284.95q-15.375 16.4-15.375 38.95t15.375 38.95l77.9 77.9q16.4 16.4 38.95 16.4t38.95-16.4l168.1-169.125 375.15 376.175q16.4 16.4 38.95 16.4t38.95-16.4l77.9-77.9q16.4-15.375 16.4-38.95z" />
<glyph unicode="&#xe863;" glyph-name="plus" horiz-adv-x="805" d="M805.651 399.019v-109.675q0-22.55-16.4-38.95t-38.95-15.375h-237.8v-238.825q0-22.55-16.4-37.925t-38.95-16.4h-109.675q-22.55 0-38.95 16.4t-15.375 37.925v238.825h-237.8q-23.575 0-38.95 15.375t-16.4 38.95v109.675q0 23.575 16.4 38.95t38.95 16.4h237.8v237.8q0 22.55 15.375 38.95t38.95 16.4h109.675q23.575 0 38.95-16.4t16.4-38.95v-237.8h237.8q23.575 0 38.95-16.4t16.4-38.95z" />
<glyph unicode="&#xe864;" glyph-name="plus-circled" horiz-adv-x="879" d="M695.976 270.894v73.8q0 14.35-11.275 25.625t-25.625 10.25h-146.575v146.575q0 15.375-11.275 25.625t-25.625 11.275h-72.775q-15.375 0-25.625-11.275t-11.275-25.625v-146.575h-146.575q-14.35 0-25.625-10.25t-10.25-25.625v-73.8q0-14.35 10.25-25.625t25.625-10.25h146.575v-146.575q0-15.375 11.275-25.625t25.625-11.275h72.775q15.375 0 25.625 11.275t11.275 25.625v146.575h146.575q14.35 0 25.625 10.25t11.275 25.625zM878.426 307.794q0-119.925-58.425-220.375t-159.9-159.9-220.375-59.45-221.4 59.45-158.875 159.9-59.45 220.375 59.45 220.375 158.875 159.9 221.4 59.45 220.375-59.45 159.9-159.9 58.425-220.375z" />
<glyph unicode="&#xe865;" glyph-name="trash-empty" horiz-adv-x="1018" d="M381.459 490.216v-383.104q0-9.548-5.968-15.514t-15.514-5.968h-42.964q-9.548 0-15.514 5.968t-5.968 15.514v383.104q0 9.548 5.968 15.514t15.514 5.968h42.964q9.548 0 15.514-5.968t5.968-15.514zM552.125 490.216v-383.104q0-9.548-5.968-15.514t-15.514-5.968h-42.964q-9.548 0-15.514 5.968t-5.968 15.514v383.104q0 9.548 5.968 15.514t15.514 5.968h42.964q9.548 0 15.514-5.968t5.968-15.514zM721.6 490.216v-383.104q0-9.548-5.968-15.514t-14.321-5.968h-42.964q-9.548 0-15.514 5.968t-5.968 15.514v383.104q0 9.548 5.968 15.514t15.514 5.968h42.964q8.355 0 14.321-5.968t5.968-15.514zM807.529 8.050v631.347h-596.735v-631.347q0-14.321 4.774-26.256t9.548-17.902 7.16-5.968h553.772q2.39 0 7.16 5.968t9.548 17.902 4.774 26.256zM359.975 725.331h298.369l-32.224 77.576q-4.774 5.968-10.742 7.16h-211.244q-7.16-1.194-11.934-7.16zM978.196 703.849v-42.964q0-9.548-5.968-15.514t-15.514-5.968h-64.447v-631.347q0-54.897-31.030-95.477t-75.188-40.578h-553.772q-44.158 0-75.188 39.384t-32.224 94.286v633.733h-63.253q-9.548 0-15.514 5.968t-5.968 15.514v42.964q0 9.548 5.968 15.514t15.514 5.968h205.279l46.545 110.992q10.742 25.063 36.998 41.774t52.513 17.902h212.437q27.449 0 52.513-17.902t35.804-41.774l46.545-110.992h206.47q9.548 0 15.514-5.968t5.968-15.514z" />
<glyph unicode="&#xe866;" glyph-name="cog-1" horiz-adv-x="879" d="M585.276 307.794q0 60.475-42.025 103.525t-103.525 43.050-103.525-43.050-43.050-103.525 43.050-103.525 103.525-43.050 103.525 43.050 42.025 103.525zM878.426 370.319v-127.1q0-7.175-4.1-13.325t-11.275-7.175l-106.6-16.4q-10.25-30.75-21.525-52.275 19.475-27.675 60.475-78.925 6.15-6.15 6.15-13.325t-5.125-13.325q-15.375-21.525-56.375-62.525t-54.325-39.975q-7.175 0-14.35 5.125l-78.925 61.5q-25.625-13.325-52.275-21.525-9.225-77.9-16.4-106.6-4.1-16.4-20.5-16.4h-127.1q-8.2 0-14.35 5.125t-6.15 12.3l-16.4 105.575q-27.675 9.225-51.25 21.525l-80.975-61.5q-6.15-5.125-14.35-5.125t-14.35 6.15q-71.75 65.6-94.3 96.35-4.1 5.125-4.1 13.325 0 6.15 5.125 12.3 8.2 12.3 28.7 37.925t30.75 41q-15.375 28.7-23.575 56.375l-104.55 15.375q-7.175 1.025-11.275 7.175t-5.125 13.325v127.1q0 7.175 5.125 13.325t10.25 7.175l106.6 16.4q8.2 25.625 22.55 52.275-23.575 32.8-61.5 78.925-6.15 7.175-6.15 14.35 0 5.125 5.125 12.3 15.375 20.5 56.375 61.5t54.325 41q7.175 0 15.375-5.125l78.925-61.5q24.6 13.325 51.25 21.525 9.225 77.9 17.425 106.6 3.075 16.4 20.5 16.4h127.1q7.175 0 13.325-5.125t7.175-12.3l15.375-105.575q28.7-9.225 52.275-20.5l80.975 60.475q5.125 5.125 13.325 5.125 7.175 0 14.35-5.125 73.8-68.675 94.3-97.375 4.1-5.125 4.1-12.3t-4.1-13.325q-9.225-12.3-29.725-37.925t-30.75-41q15.375-28.7 23.575-55.35l104.55-16.4q7.175-1.025 12.3-7.175t4.1-13.325z" />
<glyph unicode="&#xe867;" glyph-name="home-outline" horiz-adv-x="1175" d="M1135.701 381.594q38.95-30.75 38.95-82 0-43.050-30.75-74.825t-76.875-31.775h-52.275v-319.8q0-45.1-31.775-76.875t-75.85-30.75h-640.626q-43.050 0-74.825 30.75t-31.775 76.875v319.8h-53.3q-45.1 0-75.85 31.775t-30.75 74.825q0 47.15 36.9 80.975 80.975 67.65 209.1 178.35t216.275 185.525 90.2 76.875l34.85 29.725 35.875-29.725q1.025-1.025 88.15-76.875t216.275-185.525 208.075-177.325zM694.951-126.807v266.5h-214.225v-266.5h214.225zM907.126 299.594h159.9q-236.775 198.85-479.7 410-243.95-211.15-480.725-410h159.9v-426.4h159.9v319.8h320.825v-319.8h159.9v426.4z" />
<glyph unicode="&#xe868;" glyph-name="home2" horiz-adv-x="1067" d="M534.026 788.519q330.050-285.975 512.5-439.725 20.5-16.4 20.5-41 0-21.525-15.375-37.925t-36.9-15.375h-107.625v-373.1q0-21.525-15.375-37.925t-36.9-16.4h-159.9q-22.55 0-37.925 16.4t-16.4 37.925v213.2h-214.225v-213.2q0-21.525-15.375-37.925t-36.9-16.4h-159.9q-21.525 0-37.925 16.4t-16.4 37.925v373.1h-105.575q-22.55 0-37.925 15.375t-16.4 37.925 19.475 41z" />
<glyph unicode="&#xe869;" glyph-name="arrows-cw-1" d="M0-204.707v412.050h412.050l-164-164q110.7-109.675 264.45-109.675 128.125 0 227.55 76.875t133.25 196.8h141.45q-35.875-177.325-177.325-295.2t-324.925-116.85q-212.175 0-361.825 149.65zM10.25 408.244q35.875 178.35 177.325 295.2t324.925 116.85q212.175 0 362.85-149.65l149.65 149.65v-412.050h-412.050l164 164q-110.7 109.675-264.45 109.675-128.125 0-227.55-76.875t-133.25-196.8h-141.45z" />
<glyph unicode="&#xe86a;" glyph-name="cw" d="M0 307.794q0 212.175 150.675 362.85t361.825 149.65q214.225 0 363.875-151.7l148.625 105.575v-476.625l-456.125 152.725 134.275 95.325q-84.050 66.625-190.65 66.625-126.075 0-215.25-89.175t-89.175-215.25 89.175-215.25 215.25-89.175q84.050 0 153.75 41t110.7 111.725l180.4-104.55q-68.675-115.825-186.55-186.55t-258.3-69.7q-212.175 0-361.825 149.65t-150.675 362.85z" />
<glyph unicode="&#xe86b;" glyph-name="arrows-cw-12" d="M0-135.007v412.050h412.050l-164-164q110.7-109.675 264.45-109.675 128.125 0 227.55 76.875t133.25 196.8h141.45q-35.875-177.325-177.325-295.2t-324.925-116.85q-212.175 0-361.825 149.65zM10.25 477.944q35.875 178.35 177.325 295.2t324.925 116.85q212.175 0 362.85-149.65l149.65 149.65v-412.050h-412.050l164 164q-110.7 109.675-264.45 109.675-128.125 0-227.55-76.875t-133.25-196.8h-141.45z" />
<glyph unicode="&#xe86c;" glyph-name="cw2" d="M0 377.494q0 212.175 150.675 362.85t361.825 149.65q214.225 0 363.875-151.7l148.625 105.575v-476.625l-456.125 152.725 134.275 95.325q-84.050 66.625-190.65 66.625-126.075 0-215.25-89.175t-89.175-215.25 89.175-215.25 215.25-89.175q84.050 0 153.75 41t110.7 111.725l180.4-104.55q-68.675-115.825-186.55-186.55t-258.3-69.7q-212.175 0-361.825 149.65t-150.675 362.85z" />
<glyph unicode="&#xe900;" glyph-name="account_5" d="M960 896h-896c-32 0-64-25.6-64-64v-614.4c0-32 25.6-64 64-64h896c32 0 64 25.6 64 64v614.4c0 38.4-25.6 64-64 64zM608 640h236.8c19.2 0 38.4-19.2 38.4-38.4s-19.2-38.4-38.4-38.4h-236.8c-19.2 0-32 19.2-32 38.4s12.8 38.4 32 38.4zM204.8 684.8c6.4 12.8 12.8 19.2 19.2 25.6s19.2 12.8 25.6 19.2c6.4 6.4 19.2 6.4 32 6.4 25.6 0 44.8-6.4 64-25.6s25.6-38.4 25.6-64c0-12.8 0-25.6-6.4-32s-12.8-19.2-19.2-25.6-19.2-12.8-32-19.2c-6.4 0-19.2-6.4-32-6.4s-25.6 0-32 6.4c-12.8 6.4-19.2 12.8-25.6 19.2s-19.2 19.2-19.2 25.6c-6.4 12.8-6.4 25.6-6.4 38.4s0 19.2 6.4 32zM422.4 377.6c0-38.4-25.6-64-64-64h-153.6c-38.4 0-64 25.6-64 64v96c0 38.4 25.6 64 64 64h153.6c38.4 0 64-25.6 64-64v-96zM550.4 512h307.2c19.2 0 38.4-19.2 38.4-38.4s-19.2-38.4-38.4-38.4h-307.2c-19.2 6.4-38.4 19.2-38.4 38.4 0 25.6 19.2 38.4 38.4 38.4zM857.6 313.6h-307.2c-19.2 0-38.4 19.2-38.4 38.4s19.2 38.4 38.4 38.4h307.2c19.2 0 38.4-19.2 38.4-38.4 0-25.6-19.2-38.4-38.4-38.4z" />
<glyph unicode="&#xe901;" glyph-name="account_6" d="M511.491 870.745c57.929 0 129.393-62.182 129.393-97.803v-78.888c0-32.799-13.019-53.983-48.899-82.219-6.856-5.4-5.719-10.111-4.734-18.79 0.961-8.682-3.305-16.698 12.624-25.253l109.050-76.374c0.39-0.197 0.791-0.37 1.211-0.543 5.298-2.194 13.241-7.202 15.927-10.43v-45.156c0-3.474-2.834-6.31-6.31-6.31h-416.544c-3.474 0-6.286 2.837-6.286 6.31v44.712c2.762 3.18 10.356 8.335 17.064 11.391l109.123 76.4c14.303 10.922 11.589 16.621 12.625 25.253 1.013 8.655 3.474 13.463-3.329 18.915-34.8 27.937-50.433 49.096-50.433 82.093v78.888c0 35.622 71.517 97.804 129.516 97.804zM511.491 896c-69.712 0-154.768-70.801-154.768-123.057l3.255-78.888c0-34.466 12.476-66.337 56.621-101.775l-113.391-78.048c0 0-31.539-14.059-31.539-31.567v-47.375c0-17.434 14.13-31.562 31.539-31.562h416.545c17.431 0 31.562 14.129 31.562 31.562v47.375c0 18.543-31.562 31.567-31.562 31.567l-112.135 77.779c43.725 34.398 58.522 64.14 58.522 102.044v78.888c0 52.257-84.957 123.057-154.648 123.057v0zM240.462 169.893c-6.8-8.154-11.892-15.969-15.284-23.438-44.164 19.013-79.826 49.246-106.985 90.686-25.14-40.087-58.765-71.326-100.872-93.742-3.407 6.112-9.171 12.563-17.321 19.361 32.604 13.58 57.899 30.902 75.907 51.965 17.991 21.048 30.059 40.070 36.172 57.058 8.15-3.407 16.301-6.463 24.453-9.17-2.724-3.408-5.096-6.464-7.133-9.171 28.53-42.126 65.545-69.968 111.063-83.551zM109.022 152.571c0 10.86-0.687 24.79-2.040 41.778h23.438c-0.687-11.561-1.021-25.826-1.021-42.794v-72.345c0-15.634 0.334-31.584 1.021-47.884h-22.417c0.67 16.986 1.021 32.6 1.021 46.868v74.378zM327.068 98.568c14.935 19.011 25.296 38.543 31.077 58.587 5.764 20.030 8.996 38.719 9.679 56.041 0.67 17.32 0.337 35.484-1.016 54.511 7.466-0.686 15.95-1.369 25.47-2.039-2.036-10.875-3.057-22.080-3.057-33.625 0-11.555 0.67-24.803 2.040-39.738 1.353-14.946 11.032-37.539 29.040-67.757 17.988-30.234 44.321-52.823 78.961-67.757-8.147-8.154-13.594-14.935-16.301-20.381-47.553 23.087-81.514 64.863-101.891 125.326-13.597-53.668-46.534-96.464-98.832-128.383-4.077 5.447-9.857 11.212-17.323 17.325 26.492 12.897 47.203 28.867 62.154 47.89zM653.116 268.726c-0.68-19.023-1.016-37.029-1.016-54.001h88.646c-0.687-13.597-1.016-32.272-1.016-56.041 0-23.1 0.33-40.421 1.016-51.965h-22.413v15.284h-66.232v-43.812c0-8.154 0.337-23.438 1.016-45.852h-24.454c1.353 12.228 2.040 26.493 2.040 42.795v46.868h-66.224v-15.284h-22.421c0.668 10.19 1.024 27.512 1.024 51.965 0 25.124-0.355 43.814-1.024 56.041h88.646c0 18.34-0.35 36.332-1.016 54.001h23.429zM630.701 138.307v60.116h-66.224v-60.116h66.224zM718.332 138.307v60.116h-66.232v-60.116h66.232zM824.293 150.026c-3.407-17.325-8.147-38.209-14.259-62.663-8.154 2.707-16.307 4.743-24.454 6.112 9.5 27.162 16.638 58.412 21.397 93.74 6.114-1.37 14.598-3.057 25.471-5.093-2.039-4.078-4.76-14.775-8.154-32.096zM881.357 159.703v-87.626c0-8.154 4.072-12.228 12.226-12.228h47.884c7.468-0.686 12.389 1.18 14.779 5.604 2.371 4.409 4.235 14.424 5.602 30.062 6.78-5.447 14.598-9.171 23.438-11.212-4.76-21.746-9.521-34.803-14.267-39.226-4.759-4.412-10.537-6.275-17.323-5.609h-74.379c-12.227 0-19.027 7.486-20.381 22.42v96.793c0 13.58-0.35 26.145-1.016 37.702h24.454c-0.688-8.149-1.016-20.376-1.016-36.68zM932.296 216.763c-8.146-4.075-15.633-8.5-22.413-13.244-10.874 22.413-21.397 40.754-31.584 55.019 6.112 3.393 12.227 7.468 18.341 12.228 7.465-12.913 19.357-30.916 35.656-54.004zM1023.999 126.079c-7.48-3.406-14.61-8.149-21.397-14.262-14.259 27.161-28.19 49.574-41.772 67.248 6.114 3.39 12.228 7.467 18.341 12.227 15.614-21.748 30.568-43.481 44.827-65.213z" />
<glyph unicode="&#xe902;" glyph-name="account_1" d="M921.092 754.224c-154.508 0.321-296.472 53.287-409.278 141.776-112.859-88.302-254.582-141.456-408.931-141.776-102.881-336.92 74.177-699.091 409.065-821.018 334.967 121.928 512.054 484.098 409.145 821.018zM146.461 412.035h365.539v415.741c108.905-75.825 234.311-119.245 366.88-127.051 23.261-97.682 21.578-196.348-1.388-288.688h-365.493v-420.145c-0.018-0.007-0.035-0.014-0.053-0.021-187.834 75.337-319.45 235.036-365.486 420.167z" />
<glyph unicode="&#xe903;" glyph-name="account_2" d="M883.553 716.748h-253.051v135.435c0 24.199-19.617 43.817-43.817 43.817h-141.41c-24.2 0-43.818-19.618-43.818-43.817v-135.435h-261.014c-77.442 0-140.446-65.988-140.446-147.098v-541.452c0-81.112 63.004-147.1 140.446-147.1h743.108c77.443 0 140.446 65.988 140.446 147.1v541.452c0.001 81.109-63.001 147.098-140.443 147.098zM489.093 808.366h53.776v-172.961h-53.776v172.961zM936.364 28.198c0-32.791-23.69-59.466-52.811-59.466h-743.108c-29.12 0-52.811 26.676-52.811 59.466v541.452c0 32.788 23.691 59.464 52.811 59.464h261.014v-37.526c0-24.2 19.618-43.818 43.818-43.818h141.409c24.2 0 43.817 19.618 43.817 43.818v37.526h253.051c29.121 0 52.811-26.676 52.811-59.464v-541.452zM297.415 256.912c71.757 0 130.135 58.377 130.135 130.133s-58.377 130.135-130.135 130.135c-71.756 0-130.133-58.377-130.133-130.135 0-71.756 58.377-130.133 130.133-130.133zM297.415 429.545c23.435 0 42.5-19.064 42.5-42.5 0-23.434-19.064-42.499-42.5-42.499-23.433 0-42.499 19.064-42.499 42.499s19.065 42.5 42.499 42.5zM297.415 247.541c-97.726 0-177.231-79.506-177.231-177.233 0-24.199 19.618-43.817 43.818-43.817s43.817 19.618 43.817 43.817c0 49.405 40.192 89.599 89.597 89.599s89.599-40.194 89.599-89.599c0-24.199 19.618-43.817 43.818-43.817s43.817 19.618 43.817 43.817c0.001 97.728-79.505 177.233-177.231 177.233zM865.97 462.174h-256.569c-24.199 0-43.817-19.618-43.817-43.818s19.618-43.817 43.817-43.817h256.569c24.199 0 43.817 19.618 43.817 43.817s-19.618 43.818-43.817 43.818zM865.97 313.365h-256.569c-24.199 0-43.817-19.618-43.817-43.817s19.618-43.817 43.817-43.817h256.569c24.199 0 43.817 19.618 43.817 43.817s-19.618 43.817-43.817 43.817zM865.97 164.556h-256.569c-24.199 0-43.817-19.618-43.817-43.818s19.618-43.817 43.817-43.817h256.569c24.199 0 43.817 19.618 43.817 43.817 0 24.2-19.618 43.818-43.817 43.818z" />
<glyph unicode="&#xe904;" glyph-name="account_3" d="M814.479 649.065c-16.765 0-31.183-10.795-43.27-32.392-12.085-21.603-18.128-42.5-18.128-62.675 0-12.178 2.696-24.299 8.095-31.805 5.4-7.499 13.015-11.264 22.846-11.264 17.236 0 31.383 15.851 42.425 42.949 11.037 27.094 16.558 48.404 16.558 63.916 0 8.845-2.584 16.267-7.736 22.272-5.158 5.998-12.090 8.999-20.79 8.999zM990.609 896h-953.278c-19.529 0-35.36-16.389-35.36-36.603v-695.356c0-20.21 15.832-36.597 35.36-36.597h175.332v36.597c-19.527 0-35.36 16.387-35.36 36.603 0 20.206 15.834 36.595 35.36 36.595h70.72c19.533 0 35.364-16.389 35.364-36.595 0-20.216-15.832-36.603-35.364-36.603v-36.597h459.7v36.597c-19.527 0-35.358 16.387-35.358 36.603 0 20.206 15.832 36.595 35.358 36.595h70.72c19.531 0 35.362-16.389 35.362-36.595 0-20.216-15.832-36.603-35.362-36.603v-36.597h176.808c19.533 0 35.36 16.385 35.36 36.597v695.358c0 20.212-15.828 36.601-35.36 36.601zM532.387 347.024c0-20.214-17.305-36.593-36.837-36.593h-388.972c-19.527 0-35.36 16.379-35.36 36.593v439.182c0 20.218 15.832 36.599 35.36 36.599h388.972c19.529 0 36.837-16.381 36.837-36.599v-439.182zM960.242 516.853c-22.243-27.121-47.615-42.945-76.144-42.945-14.831 0-26.227 6.62-34.202 15.296-7.978 8.672-11.962 17.593-11.962 26.765 0 1.168 0.031 2.456 0.116 3.88 0.083 1.42 0.201 2.958 0.363 4.626-6.133-12.001-12.973-21.599-20.547-28.766-13.698-12.845-30.135-21.551-49.31-21.551-19.499 0-35.74 9.539-48.71 24.049-12.973 14.506-19.461 34.781-19.461 60.791 0 30.192 9.909 58.46 29.725 84.817 19.828 26.353 44.158 39.528 73.007 39.528 16.919 0 30.056-4.841 39.402-14.502 7.092-7.514 11.844-16.104 14.266-25.779l8.7 31.523h45.687l-30.946-108.57c-2.411-8.853-4.144-15.392-5.194-19.645-1.050-4.26-1.568-7.971-1.568-11.144 0-4.993 1.604-9.714 4.83-14.131 3.226-4.409 8.381-8.913 15.471-8.913 13.86 0 27.759 11.67 41.698 30.428 13.939 18.767 19.804 43.664 19.804 74.681 0 45.866-17.913 78.805-55.938 98.829-23.855 12.666-50.685 16.716-80.495 16.716-54.79 0-86.999-15.054-120.195-49.75-29.977-31.354-54.171-68.957-54.171-112.826 0-48.706 26.77-94.178 61.904-122.7 31.104-25.176 57.268-46.92 102.068-46.92 30.617 0 59.224 5.828 85.815 17.516 14.502 6.167 29.491 14.918 44.963 26.264l5.802 4.258 17.644-28.023c-22.887-18.356-47.659-32.321-74.327-41.911-26.673-9.59-54.355-14.385-83.038-14.385-66.876 0-108.006 30.667-144.752 73.69-30.456 35.697-50.839 84.83-50.839 133.716 0 54.7 25.278 101.070 63.309 139.094 39.967 40.203 79.347 58.013 141.707 58.013 50.768 0 92.827-11.471 126.186-39 35.126-29.016 50.481-67.549 50.481-115.573-0.004-37.875-8.913-70.354-31.147-97.448zM384.335 470.674c-63.959 9.773-27.067 86.55-29.164 85.461-2.099-1.085 0.522 15.727 0.522 15.727 36.837 21.356 36.68 78.542 36.68 78.542v40.952s-4.132 80.821-62.893 80.821l-50.627 18.299c-65.383 0-64.112-99.12-64.112-99.12s0.522 6.929 0-34.846c-0.526-41.787 34.954-88.081 34.954-88.081s2.621-16.823 0.524-15.723c-2.095 1.079 19.326-72.257-44.629-82.033-63.961-9.769-70.498-41.499-82.559-53.426-20.897-27.957-16.887-69.623-16.887-69.623h389.779s-5.936 58.822-17.991 70.758c-12.056 11.935-29.643 42.521-93.599 52.291z" />
<glyph unicode="&#xe905;" glyph-name="account_4" d="M913.067 896h-802.134c-59.733 0-110.933-51.2-110.933-110.933v-512c0-59.733 51.2-110.933 110.933-110.933h802.134c59.733 0 110.933 51.2 110.933 110.933v512c0 59.733-51.2 110.933-110.933 110.933zM964.267 273.067c0-29.867-25.6-51.2-51.2-51.2h-802.134c-29.866 0-51.2 25.6-51.2 51.2v512c0 29.867 25.6 51.2 51.2 51.2h802.134c29.866 0 51.2-25.6 51.2-51.2v-512zM857.6 716.8h-230.4c-12.8 0-21.333-12.8-21.333-29.866s8.533-29.867 21.333-29.867h230.4c12.8 0 21.333 12.8 21.333 29.867s-8.533 29.866-21.333 29.866zM857.6 567.467h-230.4c-12.8 0-21.333-12.8-21.333-29.867 0-17.066 8.533-29.866 21.333-29.866h230.4c12.8 0 21.333 12.8 21.333 29.866s-8.533 29.867-21.333 29.867zM857.6 418.134h-192c-12.8 0-21.333-12.8-21.333-29.867s8.533-29.867 21.333-29.867h192c12.8 0 21.333 12.8 21.333 29.867s-8.533 29.867-21.333 29.867zM422.4 490.667c34.133 25.6 51.2 68.267 51.2 110.933 0 81.067-64 145.067-145.067 145.067-81.066 0-145.066-64-145.066-145.067 0-46.933 21.333-85.333 51.2-110.933-55.467-25.6-102.4-76.8-123.734-140.8-4.266-12.8 4.267-29.867 17.067-34.133 17.067-4.267 29.867 4.266 34.133 17.066 21.334 72.534 85.334 119.467 162.134 119.467 72.533 0 140.8-46.933 162.133-119.467 4.267-12.8 17.067-21.333 25.6-21.333h8.533c12.8 4.267 21.334 21.333 17.067 34.133-12.8 68.267-55.467 119.467-115.2 145.067zM328.533 691.2c51.2 0 89.6-38.4 89.6-89.6s-38.4-89.6-89.6-89.6c-51.2 0-89.6 38.4-89.6 89.6s42.667 89.6 89.6 89.6z" />
<glyph unicode="&#xe906;" glyph-name="u_1" d="M638.658 202.587c-25.269 4.021-25.845 73.502-25.845 73.502s74.249 73.504 90.432 172.345c43.531 0 70.421 105.081 26.882 142.053 1.817 38.919 55.954 305.513-218.128 305.513s-219.943-266.594-218.13-305.513c-43.536-36.971-16.651-142.053 26.882-142.053 16.181-98.841 90.432-172.345 90.432-172.345s-0.576-69.481-25.845-73.502c-81.394-12.951-385.339-147.010-385.339-294.016h1024c0 147.006-303.945 281.065-385.342 294.016z" />
<glyph unicode="&#xe907;" glyph-name="u_2" d="M984.618 11.441c0-16.557-2.954-32.642-7.782-48.379-143.582-57.767-311.764-91.062-491.619-91.062-154.413 0-300.122 24.662-429.154 68.101-10.539 22.771-16.683 46.622-16.683 71.339 0 125.082 144.448 230.416 341.72 263.42-83.741 64.958-140.581 191.467-140.581 336.941 0 211.764 120.439 284.199 269.008 284.199 148.576 0 269.016-72.434 269.016-284.199 0-145.034-56.518-271.17-139.848-336.358 199.397-32.167 345.925-138.024 345.925-264.002zM646.656 243.961c-39.070-24.615-86.537-39.226-137.855-39.226-49.089 0-94.705 13.359-132.783 36.051-0.835-2.812-1.418-5.641-1.418-8.609 0-34.893 61.456-63.116 137.264-63.116s137.264 28.222 137.264 63.116c-0.001 4.118-0.908 7.977-2.474 11.783z" />
<glyph unicode="&#xe908;" glyph-name="u_3" d="M924.974 57.965c0-24.845 0-49.691 0-74.537-5.356-14.056-14.885-24.974-27.873-31.82-19.207-10.124-38.509-20.678-58.897-27.842-89.986-31.621-183.514-44.679-278.322-48.671-73.473-3.094-146.952-0.744-220.262 5.521-53.199 4.546-106.151 10.994-156.873 28.556-36.512 12.641-72.111 27.423-83.724 70.227 0 26.189 0 52.376 0 78.566 2.966 10.892 4.769 22.274 9.119 32.583 12.657 29.997 35.307 51.961 60.925 70.906 56.841 42.034 121.424 66.58 189.892 81.286 18.24 3.918 31.14 13.127 40.962 27.914 12.702 19.124 12.196 36.686-1.26 54.604-21.23 28.27-35.335 59.876-44.848 93.795-1.255 4.472-5.525 8.335-8.992 11.902-7.602 7.823-17.826 14.004-22.993 23.115-15.939 28.108-24.82 58.662-22.925 91.396 0.662 11.428 0.695 23.875 11.739 29.462-4.167 20.398-9.715 39.531-11.751 59.031-6.154 58.957 5.551 114.821 33.434 167.066 22.731 42.593 55.789 73.62 103.221 86.775 14.391 3.991 29.459 5.536 44.216 8.2 1.343 0 2.686 0 4.029 0 16.124-2.692 32.501-4.371 48.308-8.326 21.071-5.273 40.679-14.406 54.471-32.069 4.2-5.378 8.020-6.871 14.263-6.016 52.489 7.187 86.599-20.603 104.527-63.372 24.512-58.479 25.418-119.414 16.803-181.026-1.945-13.906-7.925-27.6 1.665-41.004 1.249-1.747 1.211-4.479 1.572-6.786 8.176-52.002-6.942-96.019-45.17-132.207-2.563-2.425-5.223-5.554-6.107-8.824-9.778-36.128-28.499-67.656-48.411-98.896-6.102-9.573-9.378-22.51-9.528-33.965-0.25-19.158 16.181-33.304 40.414-38.271 48.169-9.876 94.93-24.263 138.549-47.046 22.496-11.749 44.435-25.174 64.739-40.364 33.521-25.078 59.288-56.23 65.086-99.863z" />
<glyph unicode="&#xe909;" glyph-name="u_4" d="M951.106 380.803h-94.692v92.523c0 39.443-32.676 71.385-73.053 71.385-40.309 0-73.051-31.942-73.051-71.385v-92.523h-94.66c-40.343 0-73.051-31.942-73.051-71.353s32.708-71.385 73.051-71.385h94.66v-92.523c0-39.411 32.742-71.385 73.051-71.385 40.378 0 73.053 31.974 73.053 71.385v92.523h94.692c40.342 0 73.051 31.974 73.051 71.385s-32.709 71.353-73.051 71.353zM381.724 523.103c105.396 0 190.818 83.422 190.818 186.416s-85.422 186.481-190.818 186.481c-105.359 0-190.817-83.488-190.817-186.481s85.457-186.416 190.817-186.416zM601.883 157.21c0 0-177.546-17.738-163.243 149.506 6.068 70.818 54.113 101.325 99.958 114.329-48.678 31.274-103.026 48.845-160.375 48.845-208.786 0-378.064-231.559-378.064-517.135 0-9.536 0.233-19.038 0.633-28.441h754.864c0.399 9.403 0.599 18.905 0.599 28.441 0 13.469-0.466 26.907-1.267 40.175-54.982 1.969-154.374 24.809-153.106 164.279z" />
<glyph unicode="&#xe90a;" glyph-name="u_5" d="M396.009 280.006c18.586-3.54 161.078-40.713 240.733 191.171 5.311 15.046 69.918 176.125 9.735 292.066-15.045 26.551-67.264 132.757-255.779 117.712 0 0-212.411-19.472-201.791-253.125 6.196-50.447 38.941-305.341 207.102-347.824zM565.054 216.282s-192.541 26.551-394.731-23.896c-48.678-14.161-167.274-41.598-169.044-141.608s0-102.665 0-102.665h728.396c-0.001 0-168.162 65.495-164.62 268.17zM1023.509 252.57h-130.103v130.102h-110.631v-130.102h-130.103v-108.862h130.103v-130.987h110.631v130.987h130.103z" />
<glyph unicode="&#xe90b;" glyph-name="u_6" d="M524.788 519.687s-0.564 0 0 0v0zM594.183 187.945h-75.037c-34.415 0-66.574 13.54-90.27 37.236-24.26 24.26-37.236 56.419-37.236 90.27v76.165c0 23.132 6.206 45.135 17.49 64.882-16.926-3.385-33.851-5.642-51.905-5.642-64.882 0-120.736 22.567-167.564 68.267-27.081 0-50.777-6.206-71.652-18.618s-37.801-28.209-50.213-47.392c-12.412-19.182-23.132-42.878-31.030-69.959-8.463-27.081-13.54-54.162-16.926-81.243-2.821-27.081-4.513-55.29-4.513-85.756 0-38.929 11.284-72.216 33.287-99.861s49.084-41.75 80.679-41.75h456.428c5.078 0 9.591 0.564 14.105 1.128-3.385 11.848-5.642 24.26-5.642 37.236v75.037zM357.224 485.272c56.419 0 104.939 20.311 144.996 60.368s60.368 88.577 60.368 144.996-20.311 104.939-60.368 144.996c-40.057 40.057-88.577 60.368-144.996 60.368s-104.939-20.311-144.996-60.368c-40.057-40.057-60.368-88.577-60.368-144.996s20.311-104.939 60.368-144.996c40.057-40.057 88.577-60.368 144.996-60.368zM1027.479 418.698c-7.334 7.334-16.361 11.284-27.081 11.284h-164.743v164.178c0 10.72-3.949 19.747-11.284 27.081s-16.361 11.284-27.081 11.284h-75.601c-10.72 0-19.747-3.949-27.081-11.284s-11.284-16.361-11.284-27.081v-164.743h-164.743c-10.72 0-19.747-3.949-27.081-11.284s-11.284-16.361-11.284-27.081v-76.165c0-10.72 3.949-19.747 11.284-27.081s16.361-11.284 27.081-11.284h164.743v-164.743c0-10.72 3.949-19.747 11.284-27.081s16.361-11.284 27.081-11.284h76.165c10.72 0 19.747 3.949 27.081 11.284s11.284 16.361 11.284 27.081v164.743h164.743c10.72 0 19.747 3.949 27.081 11.284s11.284 16.361 11.284 27.081v76.165c-1.128 11.284-4.513 20.311-11.848 27.645z" />
<glyph unicode="&#xe90c;" glyph-name="u_7" d="M625.558-122.184h-25.73l-40.563-0.313h-548.273v26.401c0 0-11.902 147.478 205.288 185.228 0 0 165.332 22.319 176.908 67.788 0 0 6.308 5.059 1.653 57.863-9.923 112.431-83.495 165.336-113.255 208.323-29.76 42.991-32.239 92.589-32.239 92.589 0 12.396 5.191 16.939 13.823 24.901 10.671 9.851 7.468 20.314 5.431 31.397-7.753 42.080-8.438 109.682-1.069 152.026 1.653 50.427 47.946 90.932 47.946 90.932 8.686 7.369 17.392 15.477 23.489 25.201 1.703 2.708 3.27 5.613 4.197 8.691 3.488 11.608-8.32 20.132-5.952 32.479 2.138 11.133 21.219 11.681 32.759 12.287 25.988 1.368 52.108 2.391 78.055 0.404 194.196-14.887 258.043-86.376 258.043-86.376 15.118-18.104 25.078-40.242 31.070-62.932 1.794-6.784 3.333-13.709 4.167-20.685 6.055-34.78 6.032-71.049 4.149-106.195-0.897-16.758-2.845-33.252-5.305-49.834-1.29-8.678-0.628-16.753 5.172-23.687 4.846-5.802 10.39-9.855 12.768-17.477 1.114-3.565 1.404-7.414 1.404-11.129 0 0-2.483-49.599-32.243-92.589-29.76-42.985-103.333-95.891-113.251-208.323-4.66-52.805 1.653-57.863 1.653-57.863 11.571-45.467 176.908-67.788 176.908-67.788 219.618-40.73 205.283-185.228 205.283-185.228v-26.401h-144.586l22.781 0.313-250.483 0.001zM1002.699 307.369h-123.843v123.865c0 11.257-9.155 20.389-20.389 20.389s-20.389-9.134-20.389-20.389v-123.865h-123.887c-11.234 0-20.389-9.134-20.389-20.389 0-11.257 9.155-20.389 20.389-20.389h123.887v-123.865c0-11.257 9.155-20.389 20.389-20.389s20.389 9.134 20.389 20.389v123.864h123.843c11.234 0 20.389 9.134 20.389 20.389 0 11.257-9.155 20.391-20.389 20.391z" />
<glyph unicode="&#xe90d;" glyph-name="u_8" d="M783.665-89.445q-47.628 0-90.153 18.144t-74.277 49.896-49.896 74.277-18.144 90.153 18.144 90.153 49.896 73.71 74.277 49.329 90.153 18.144 90.153-18.144 73.71-49.329 49.329-73.71 18.144-90.153-18.144-90.153-49.329-74.277-73.71-49.896-90.153-18.144zM898.199 180.446h-83.916v78.246q0 15.876-10.206 27.216t-26.082 11.34-24.948-11.34-9.072-27.216v-78.246h-73.71q-15.876 0-27.216-11.34t-11.34-27.216 11.34-23.814 27.216-7.938h73.71v-80.514q0-15.876 9.072-27.216t24.948-11.34 26.082 11.34 10.206 27.216v80.514h83.916v-2.268q15.876 0 27.216 9.072t11.34 24.948-11.34 27.216-27.216 11.34zM618.101 462.812q-4.536-18.144-9.072-32.886-4.536-12.474-11.34-25.515t-14.742-19.845q-10.206-7.938-14.175-17.010t-6.804-18.711-6.237-19.845-11.34-20.412q-26.082-34.020-39.123-65.772t-18.144-61.236-2.835-58.401 9.072-56.133q4.536-20.412 13.608-42.525t26.649-45.36 44.793-45.36 68.040-42.525q-27.216-5.67-63.504-10.206-30.618-3.402-75.411-6.237t-102.627-2.835q-29.484 0-68.607 2.268t-80.514 5.67-81.648 7.938-73.71 9.639-56.7 10.773-28.917 10.206q-10.206 9.072-15.876 50.463t3.402 108.297q5.67 37.422 30.051 57.267t57.267 31.185 68.607 20.979 62.937 26.649q21.546 13.608 32.886 25.515t15.876 24.381 4.536 26.082-1.134 29.484q-2.268 23.814-16.443 37.422t-30.051 27.216q-9.072 6.804-15.876 20.412t-11.34 26.082q-5.67 14.742-9.072 32.886-7.938 2.268-14.742 6.804-5.67 4.536-12.474 13.608t-12.474 27.216q-5.67 17.010-3.969 31.752t6.237 24.948q4.536 12.474 12.474 21.546 0 38.556 4.536 77.112 4.536 32.886 14.175 70.308t31.185 66.906q20.412 28.35 43.659 46.494t48.195 28.35 49.896 14.175 47.628 3.969q29.484 0 56.7-6.804t50.463-18.144 41.391-25.515 29.484-28.917q26.082-32.886 37.989-72.576t17.577-74.844q5.67-40.824 4.536-81.648 6.804-5.67 11.34-13.608 4.536-6.804 6.804-18.144t0-28.35q-2.268-21.546-9.072-34.020t-14.742-19.278q-9.072-7.938-19.278-11.34z" />
<glyph unicode="&#xe90e;" glyph-name="Search" d="M801.853 429.455c-0.016 182.646-148.607 331.236-331.244 331.236-88.478 0-171.654-34.453-234.232-97.028-62.56-62.569-97.012-145.738-97.012-234.208 0-88.478 34.453-171.657 97.021-234.224 62.569-62.56 145.745-97.021 234.224-97.021 82.281 0 159.744 30.126 220.551 84.62l24.117-24.117-1.411-1.411c-6.236-6.235-6.236-16.345 0-22.58l120.405-120.406c6.235-6.235 16.345-6.235 22.58 0l25.394 25.403c6.237 6.228 6.237 16.337 0 22.574l-120.404 120.405c-6.235 6.235-16.345 6.235-22.58 0l-1.411-1.411-23.945 23.954c56.605 61.321 87.948 140.273 87.948 224.215zM270.252 229.099c-53.526 53.518-82.998 124.669-82.998 200.355 0 75.679 29.472 146.828 82.99 200.348 53.52 53.518 124.686 82.998 200.363 83.005 156.229-0.008 283.345-127.124 283.353-283.353 0-75.679-29.488-146.845-83.005-200.363-53.52-53.518-124.669-82.99-200.348-82.998-75.686 0.001-146.835 29.489-200.355 83.007z" />
<glyph unicode="&#xe90f;" glyph-name="search_1" d="M46.545-128h651.636c25.662 0 46.545 21.536 46.545 48v240c0 0.32-0.155 0.576-0.186 0.896 1.707 1.12 3.475 2.176 5.151 3.36l247.808-255.552c3.041-3.136 7.013-4.704 10.985-4.704s7.944 1.568 10.985 4.672c6.051 6.24 6.051 16.384 0 22.624l-245.543 253.216c39.222 37.984 63.891 91.776 63.891 151.488 0 73.504-37.267 138.112-93.277 175.104 0.031 0.32 0.186 0.576 0.186 0.896v80c0 0.544-0.248 0.992-0.279 1.504-0.062 0.736-0.248 1.376-0.403 2.080-0.528 2.272-1.427 4.32-2.793 6.112-0.217 0.288-0.186 0.64-0.403 0.928l-248.242 288c-0.093 0.096-0.217 0.096-0.31 0.192-1.862 2.080-4.251 3.456-6.92 4.288-0.59 0.192-1.117 0.256-1.738 0.352-0.9 0.16-1.738 0.544-2.669 0.544h-434.424c-25.662 0-46.545-21.536-46.545-48v-928c0-26.464 20.883-48 46.545-48zM806.788 336c0-97.056-76.583-176-170.667-176s-170.667 78.944-170.667 176 76.583 176 170.667 176 170.667-78.944 170.667-176zM496.485 837.92l198.191-229.92h-182.675c-6.827 0-15.515 13.44-15.515 24v205.92zM31.030 848c0 8.832 6.982 16 15.515 16h418.909v-232c0-25.888 20.325-56 46.545-56h201.697v-48.032c-23.893 10.304-50.083 16.032-77.576 16.032-57.034 0-108.482-24.64-145.191-64h-320.264c-8.564 0-15.515-7.168-15.515-16s6.951-16 15.515-16h295.781c-17.532-28.128-28.61-60.832-31.216-96h-264.564c-8.564 0-15.515-7.168-15.515-16s6.951-16 15.515-16h264.533c2.607-35.168 13.715-67.872 31.216-96h-295.75c-8.564 0-15.515-7.168-15.515-16s6.951-16 15.515-16h318.061c0.652 0 1.21 0.288 1.862 0.384 36.74-39.584 88.343-64.384 145.532-64.384 27.493 0 53.682 5.728 77.576 16.064v-224.064c0-8.832-6.982-16-15.515-16h-651.636c-8.688 0-15.515 7.040-15.515 16v928zM170.667 576h186.182c8.564 0 15.515 7.168 15.515 16s-6.951 16-15.515 16h-186.182c-8.564 0-15.515-7.168-15.515-16s6.951-16 15.515-16zM170.667 64h403.394c8.564 0 15.515 7.168 15.515 16s-6.951 16-15.515 16h-403.394c-8.564 0-15.515-7.168-15.515-16s6.951-16 15.515-16z" />
<glyph unicode="&#xe910;" glyph-name="search_2" d="M950.149-12.197l-270.272 271.924c50.381 60.328 80.712 137.98 80.712 222.725 0 192.032-155.672 347.704-347.719 347.704-192.032 0-347.704-155.671-347.704-347.704s155.673-347.704 347.704-347.704c87.265 0 167.016 32.148 228.067 85.239l269.864-271.526c10.864-10.865 28.482-10.865 39.348 0 10.853 10.866 10.853 28.476 0 39.342zM412.87 189.921c-161.554 0-292.531 130.971-292.531 292.533 0 161.56 130.977 292.534 292.531 292.534 161.58 0 292.56-130.973 292.56-292.534s-130.981-292.533-292.56-292.533z" />
<glyph unicode="&#xe911;" glyph-name="search_3" d="M334.793 702.973c-112.231-50.209-180.161-168.347-165.394-289.439 20.674-191.975 225.939-308.636 401.67-230.37l72.36 32.488 93.034-93.034c72.36-72.36 95.987-88.604 110.755-73.836s-1.477 38.395-75.313 112.231l-93.034 93.034 31.011 57.592c33.965 63.499 41.348 169.824 14.767 237.753-54.639 144.719-245.137 220.033-389.856 153.58zM557.779 658.671c91.557-41.348 131.429-107.801 131.429-215.602 0-109.278-41.348-174.254-137.336-217.079-91.557-41.348-178.684-26.581-255.474 42.825-126.999 115.185-101.894 311.59 50.209 386.903 76.79 38.395 132.906 38.395 211.172 2.953z" />
<glyph unicode="&#xe912;" glyph-name="Add" d="M496.97 858.934c-274.017 0-496.97-222.954-496.97-496.97s222.954-496.97 496.97-496.97 496.97 222.954 496.97 496.97-222.954 496.97-496.97 496.97zM496.97-72.885c-239.788 0-434.849 195.060-434.849 434.849s195.060 434.849 434.849 434.849 434.849-195.060 434.849-434.849-195.060-434.849-434.849-434.849zM683.334 393.024h-155.304v155.304c0 17.146-13.885 31.060-31.060 31.060s-31.060-13.916-31.060-31.060v-155.304h-155.304c-17.177 0-31.060-13.916-31.060-31.060s13.885-31.060 31.060-31.060h155.304v-155.304c0-17.146 13.885-31.060 31.060-31.060s31.060 13.916 31.060 31.060v155.304h155.304c17.177 0 31.060 13.916 31.060 31.060s-13.885 31.060-31.060 31.060z" />
<glyph unicode="&#xe913;" glyph-name="home" d="M512.5 878.505l-469.792-469.792 31.219-31.219 96.906 96.906v-438.572h683.334v438.615l96.948-96.948 31.177 31.177-469.792 469.835zM597.917 78.534h-170.834v298.959h170.834v-298.959zM811.459 78.534h-170.834v341.667h-256.25v-341.667h-170.834v438.572l298.959 298.959 298.959-298.959v-438.572z" />
</font>
</defs>
</svg>
